<svg width="356" height="72" viewBox="0 0 356 72" fill="none" xmlns="http://www.w3.org/2000/svg">
<rect x="0.5" y="0.5" width="355" height="71" rx="15.5" fill="#292929"/>
<rect x="0.5" y="0.5" width="355" height="71" rx="15.5" stroke="#3E3E3E"/>
<path fill-rule="evenodd" clip-rule="evenodd" d="M20.125 37C19.7108 37 19.375 36.6642 19.375 36.25V31.75C19.375 31.3358 19.7108 31 20.125 31H21.4375C21.4375 31 22.6801 31 23.5588 31.8787C23.5588 31.8787 24.4375 32.7574 24.4375 34C24.4375 34 24.4375 35.2426 23.5588 36.1213C23.5588 36.1213 22.6801 37 21.4375 37H20.125ZM21.4375 35.5H20.875V32.5H21.4375C21.4375 32.5 22.0588 32.5 22.4982 32.9393C22.4982 32.9393 22.9375 33.3787 22.9375 34C22.9375 34 22.9375 34.6213 22.4982 35.0607C22.4982 35.0607 22.0588 35.5 21.4375 35.5Z" fill="#3F66E6"/>
<path fill-rule="evenodd" clip-rule="evenodd" d="M28.1875 31C28.1875 31 29.3717 31 30.1988 31.9022C30.1988 31.9022 31 32.7763 31 34C31 34 31 35.2237 30.1988 36.0978C30.1988 36.0978 29.3717 37 28.1875 37C28.1875 37 27.0033 37 26.1762 36.0978C26.1762 36.0978 25.375 35.2237 25.375 34C25.375 34 25.375 32.7763 26.1762 31.9022C26.1762 31.9022 27.0033 31 28.1875 31ZM28.1875 32.5C28.1875 32.5 27.6631 32.5 27.282 32.9158C27.282 32.9158 26.875 33.3598 26.875 34C26.875 34 26.875 34.6402 27.282 35.0842C27.282 35.0842 27.6631 35.5 28.1875 35.5C28.1875 35.5 28.7119 35.5 29.093 35.0842C29.093 35.0842 29.5 34.6402 29.5 34C29.5 34 29.5 33.3598 29.093 32.9158C29.093 32.9158 28.7119 32.5 28.1875 32.5Z" fill="#3F66E6"/>
<path d="M34.5564 32.5C35.0239 32.5037 35.369 32.8191 35.369 32.8191C35.5072 32.9455 35.6877 33.0156 35.875 33.0156C35.8862 33.0156 35.8974 33.0153 35.9086 33.0148C36.1073 33.0059 36.2943 32.9185 36.4285 32.7717C36.5549 32.6334 36.625 32.4529 36.625 32.2656L36.625 32.2635C36.625 32.253 36.6247 32.2425 36.6242 32.232C36.6153 32.0333 36.5279 31.8463 36.3811 31.7121C35.6114 31.0084 34.5685 31 34.5685 31C33.3748 31 32.5494 31.9007 32.5494 31.9007C31.75 32.773 31.75 34 31.75 34C31.75 35.227 32.5494 36.0993 32.5494 36.0993C33.3748 37 34.5625 37 34.5625 37C35.6114 36.9915 36.3811 36.2879 36.3811 36.2879C36.5365 36.1458 36.625 35.9449 36.625 35.7344L36.625 35.7291C36.6237 35.5436 36.5537 35.3652 36.4285 35.2283C36.2865 35.0729 36.0856 34.9844 35.875 34.9844L35.8698 34.9844C35.6843 34.9857 35.5059 35.0556 35.369 35.1808C35.0239 35.4962 34.5625 35.5 34.5625 35.5C34.0348 35.5 33.6553 35.0858 33.6553 35.0858C33.25 34.6436 33.25 34 33.25 34C33.25 33.3564 33.6553 32.9141 33.6553 32.9141C34.0348 32.5 34.5564 32.5 34.5564 32.5Z" fill="#3F66E6"/>
<path d="M34.75 24.5607V28C34.75 28.4142 35.0858 28.75 35.5 28.75C35.9142 28.75 36.25 28.4142 36.25 28V24.25C36.25 24.0511 36.171 23.8603 36.0303 23.7197L30.7803 18.4697C30.6397 18.329 30.4489 18.25 30.25 18.25L21.25 18.25C20.6287 18.25 20.1893 18.6893 20.1893 18.6893C19.75 19.1287 19.75 19.75 19.75 19.75V28C19.75 28.4142 20.0858 28.75 20.5 28.75C20.9142 28.75 21.25 28.4142 21.25 28V19.75H29.9393L34.75 24.5607Z" fill="#3F66E6"/>
<path d="M30.25 25H35.5C35.9142 25 36.25 24.6642 36.25 24.25C36.25 23.8358 35.9142 23.5 35.5 23.5H31V19C31 18.5858 30.6642 18.25 30.25 18.25C29.8358 18.25 29.5 18.5858 29.5 19V24.25C29.5 24.6642 29.8358 25 30.25 25Z" fill="#3F66E6"/>
<path d="M49.232 29V19.368H50.254V29H49.232ZM57.2683 29V25.136C57.2683 24.5573 57.0957 24.0907 56.7503 23.736C56.4143 23.372 55.9663 23.19 55.4063 23.19C55.0237 23.19 54.6877 23.274 54.3983 23.442C54.109 23.61 53.8803 23.8387 53.7123 24.128C53.5443 24.4173 53.4603 24.7487 53.4603 25.122L53.0123 24.87C53.0123 24.3753 53.129 23.932 53.3623 23.54C53.5957 23.148 53.9083 22.84 54.3003 22.616C54.7017 22.392 55.159 22.28 55.6723 22.28C56.1763 22.28 56.6243 22.4013 57.0163 22.644C57.4083 22.8867 57.7117 23.2133 57.9263 23.624C58.1503 24.0347 58.2623 24.4827 58.2623 24.968V29H57.2683ZM52.4803 29V22.42H53.4603V29H52.4803ZM62.8956 29.14C62.2889 29.14 61.7429 28.9907 61.2576 28.692C60.7722 28.3933 60.3849 27.9873 60.0956 27.474C59.8156 26.9513 59.6756 26.368 59.6756 25.724C59.6756 25.0707 59.8156 24.4873 60.0956 23.974C60.3849 23.4513 60.7722 23.0407 61.2576 22.742C61.7429 22.434 62.2889 22.28 62.8956 22.28C63.3902 22.28 63.8382 22.378 64.2396 22.574C64.6409 22.77 64.9722 23.05 65.2336 23.414C65.5042 23.7687 65.6629 24.1887 65.7096 24.674V26.732C65.6536 27.208 65.4949 27.628 65.2336 27.992C64.9816 28.3467 64.6549 28.6267 64.2536 28.832C63.8522 29.0373 63.3996 29.14 62.8956 29.14ZM63.0636 28.202C63.5209 28.202 63.9222 28.0993 64.2676 27.894C64.6129 27.6793 64.8836 27.3853 65.0796 27.012C65.2756 26.6293 65.3736 26.1953 65.3736 25.71C65.3736 25.2153 65.2709 24.7813 65.0656 24.408C64.8696 24.0347 64.5989 23.7407 64.2536 23.526C63.9082 23.3113 63.5069 23.204 63.0496 23.204C62.5922 23.204 62.1862 23.3113 61.8316 23.526C61.4769 23.7407 61.1969 24.0393 60.9916 24.422C60.7956 24.7953 60.6976 25.2247 60.6976 25.71C60.6976 26.1953 60.7956 26.6293 60.9916 27.012C61.1969 27.3853 61.4769 27.6793 61.8316 27.894C62.1956 28.0993 62.6062 28.202 63.0636 28.202ZM66.2976 29H65.3176V27.236L65.5136 25.612L65.3176 24.03V19.088H66.2976V29ZM70.889 29.14C70.357 29.14 69.881 29.0187 69.461 28.776C69.041 28.524 68.7097 28.1833 68.467 27.754C68.2337 27.3247 68.117 26.8207 68.117 26.242V22.42H69.111V26.2C69.111 26.6013 69.181 26.9513 69.321 27.25C69.4703 27.5487 69.6803 27.782 69.951 27.95C70.2217 28.118 70.5343 28.202 70.889 28.202C71.4397 28.202 71.8737 28.02 72.191 27.656C72.5177 27.292 72.681 26.8067 72.681 26.2V22.42H73.661V26.242C73.661 26.8113 73.5443 27.3153 73.311 27.754C73.0777 28.1927 72.751 28.5333 72.331 28.776C71.911 29.0187 71.4303 29.14 70.889 29.14ZM77.5061 29.14C77.1514 29.14 76.8108 29.0933 76.4841 29C76.1574 28.8973 75.8588 28.7573 75.5881 28.58C75.3268 28.4027 75.0981 28.1927 74.9021 27.95L75.5321 27.306C75.7934 27.6233 76.0874 27.8613 76.4141 28.02C76.7501 28.1693 77.1234 28.244 77.5341 28.244C77.9728 28.244 78.3134 28.16 78.5561 27.992C78.8081 27.824 78.9341 27.5907 78.9341 27.292C78.9341 27.012 78.8454 26.7927 78.6681 26.634C78.4908 26.4753 78.2621 26.3493 77.9821 26.256C77.7114 26.1627 77.4221 26.074 77.1141 25.99C76.8061 25.8967 76.5121 25.7847 76.2321 25.654C75.9521 25.514 75.7234 25.3227 75.5461 25.08C75.3781 24.8373 75.2941 24.52 75.2941 24.128C75.2941 23.7547 75.3828 23.4327 75.5601 23.162C75.7468 22.882 76.0081 22.6673 76.3441 22.518C76.6894 22.3593 77.0954 22.28 77.5621 22.28C78.0568 22.28 78.5048 22.3687 78.9061 22.546C79.3074 22.7233 79.6294 22.9847 79.8721 23.33L79.2421 23.96C79.0461 23.708 78.7988 23.5167 78.5001 23.386C78.2108 23.246 77.8841 23.176 77.5201 23.176C77.1001 23.176 76.7781 23.26 76.5541 23.428C76.3394 23.5867 76.2321 23.7967 76.2321 24.058C76.2321 24.31 76.3208 24.5107 76.4981 24.66C76.6754 24.8 76.8994 24.9167 77.1701 25.01C77.4501 25.094 77.7441 25.1827 78.0521 25.276C78.3601 25.36 78.6541 25.4767 78.9341 25.626C79.2141 25.766 79.4381 25.962 79.6061 26.214C79.7834 26.4567 79.8721 26.788 79.8721 27.208C79.8721 27.796 79.6574 28.2673 79.2281 28.622C78.8081 28.9673 78.2341 29.14 77.5061 29.14ZM82.4457 29V19.648H83.4257V29H82.4457ZM80.7797 23.302V22.42H85.0777V23.302H80.7797ZM86.4276 29V22.42H87.4076V29H86.4276ZM87.4076 25.164L87.0016 24.982C87.0016 24.1513 87.2023 23.4933 87.6036 23.008C88.0143 22.5227 88.5743 22.28 89.2836 22.28C89.6103 22.28 89.9089 22.3407 90.1796 22.462C90.4503 22.574 90.7023 22.756 90.9356 23.008L90.2916 23.694C90.1329 23.5167 89.9556 23.3907 89.7596 23.316C89.5729 23.2413 89.3583 23.204 89.1156 23.204C88.6116 23.204 88.2009 23.372 87.8836 23.708C87.5663 24.0347 87.4076 24.52 87.4076 25.164ZM94.026 29.028L91.142 22.42H92.22L94.544 27.936H94.138L96.588 22.42H97.68L94.586 29.028H94.026ZM92.234 31.772L94.04 28.034L94.586 29.028L93.312 31.772H92.234ZM98.5307 30.582V29.742H104.817V30.582H98.5307ZM107.271 24.688V23.82H110.071C110.706 23.82 111.191 23.6613 111.527 23.344C111.863 23.0173 112.031 22.5833 112.031 22.042C112.031 21.5193 111.863 21.0947 111.527 20.768C111.191 20.432 110.706 20.264 110.071 20.264H107.271V19.368H110.071C110.696 19.368 111.233 19.4847 111.681 19.718C112.129 19.942 112.47 20.2547 112.703 20.656C112.946 21.0573 113.067 21.5147 113.067 22.028C113.067 22.56 112.946 23.0267 112.703 23.428C112.47 23.8293 112.129 24.142 111.681 24.366C111.233 24.5807 110.696 24.688 110.071 24.688H107.271ZM106.613 29V19.368H107.635V29H106.613ZM112.437 29L108.825 24.548L109.819 24.226L113.753 29H112.437ZM117.848 29.14C117.186 29.14 116.593 28.9907 116.07 28.692C115.548 28.3933 115.132 27.9827 114.824 27.46C114.526 26.9373 114.376 26.3493 114.376 25.696C114.376 25.052 114.526 24.4733 114.824 23.96C115.123 23.4373 115.529 23.0267 116.042 22.728C116.556 22.4293 117.13 22.28 117.764 22.28C118.362 22.28 118.889 22.4153 119.346 22.686C119.813 22.9567 120.177 23.3347 120.438 23.82C120.709 24.296 120.844 24.8467 120.844 25.472C120.844 25.5467 120.84 25.6353 120.83 25.738C120.821 25.8313 120.802 25.9433 120.774 26.074H115.076V25.234H120.242L119.892 25.542C119.902 25.0567 119.818 24.6413 119.64 24.296C119.472 23.9413 119.225 23.6707 118.898 23.484C118.581 23.288 118.194 23.19 117.736 23.19C117.26 23.19 116.845 23.2927 116.49 23.498C116.136 23.7033 115.856 23.9927 115.65 24.366C115.454 24.73 115.356 25.164 115.356 25.668C115.356 26.172 115.459 26.6153 115.664 26.998C115.879 27.3807 116.173 27.6793 116.546 27.894C116.929 28.1087 117.368 28.216 117.862 28.216C118.264 28.216 118.632 28.146 118.968 28.006C119.304 27.8567 119.589 27.6373 119.822 27.348L120.452 27.992C120.144 28.356 119.762 28.6407 119.304 28.846C118.856 29.042 118.371 29.14 117.848 29.14ZM125.746 29.14C125.242 29.14 124.789 29.0373 124.388 28.832C123.986 28.6267 123.655 28.3467 123.394 27.992C123.142 27.628 122.988 27.208 122.932 26.732V24.674C122.988 24.1887 123.146 23.7687 123.408 23.414C123.669 23.05 124 22.77 124.402 22.574C124.812 22.378 125.26 22.28 125.746 22.28C126.352 22.28 126.898 22.434 127.384 22.742C127.869 23.0407 128.252 23.4513 128.532 23.974C128.821 24.4873 128.966 25.0707 128.966 25.724C128.966 26.368 128.826 26.9467 128.546 27.46C128.266 27.9733 127.878 28.384 127.384 28.692C126.898 28.9907 126.352 29.14 125.746 29.14ZM122.344 31.772V22.42H123.324V24.1L123.128 25.696L123.324 27.306V31.772H122.344ZM125.578 28.202C126.044 28.202 126.455 28.0993 126.81 27.894C127.164 27.6793 127.44 27.3853 127.636 27.012C127.841 26.6293 127.944 26.1953 127.944 25.71C127.944 25.2153 127.841 24.7813 127.636 24.408C127.44 24.0347 127.164 23.7407 126.81 23.526C126.455 23.3113 126.049 23.204 125.592 23.204C125.134 23.204 124.728 23.3113 124.374 23.526C124.028 23.7407 123.758 24.0347 123.562 24.408C123.366 24.7813 123.268 25.2153 123.268 25.71C123.268 26.1953 123.366 26.6293 123.562 27.012C123.758 27.3853 124.028 27.6793 124.374 27.894C124.719 28.0993 125.12 28.202 125.578 28.202ZM133.515 29.14C132.88 29.14 132.302 28.986 131.779 28.678C131.266 28.37 130.855 27.9547 130.547 27.432C130.248 26.9093 130.099 26.326 130.099 25.682C130.099 25.0473 130.248 24.4733 130.547 23.96C130.855 23.4467 131.266 23.0407 131.779 22.742C132.302 22.434 132.88 22.28 133.515 22.28C134.159 22.28 134.738 22.4293 135.251 22.728C135.764 23.0267 136.17 23.4373 136.469 23.96C136.777 24.4733 136.931 25.0473 136.931 25.682C136.931 26.3353 136.777 26.9233 136.469 27.446C136.17 27.9593 135.764 28.37 135.251 28.678C134.738 28.986 134.159 29.14 133.515 29.14ZM133.515 28.188C133.982 28.188 134.392 28.0807 134.747 27.866C135.111 27.6513 135.396 27.3527 135.601 26.97C135.816 26.5873 135.923 26.158 135.923 25.682C135.923 25.206 135.816 24.786 135.601 24.422C135.396 24.0487 135.111 23.7547 134.747 23.54C134.392 23.3253 133.982 23.218 133.515 23.218C133.058 23.218 132.647 23.3253 132.283 23.54C131.919 23.7547 131.634 24.0487 131.429 24.422C131.224 24.786 131.121 25.206 131.121 25.682C131.121 26.1673 131.224 26.6013 131.429 26.984C131.634 27.3573 131.919 27.6513 132.283 27.866C132.647 28.0807 133.058 28.188 133.515 28.188ZM138.49 29V22.42H139.47V29H138.49ZM139.47 25.164L139.064 24.982C139.064 24.1513 139.265 23.4933 139.666 23.008C140.077 22.5227 140.637 22.28 141.346 22.28C141.673 22.28 141.971 22.3407 142.242 22.462C142.513 22.574 142.765 22.756 142.998 23.008L142.354 23.694C142.195 23.5167 142.018 23.3907 141.822 23.316C141.635 23.2413 141.421 23.204 141.178 23.204C140.674 23.204 140.263 23.372 139.946 23.708C139.629 24.0347 139.47 24.52 139.47 25.164ZM144.995 29V19.648H145.975V29H144.995ZM143.329 23.302V22.42H147.627V23.302H143.329ZM148.542 30.582V29.742H154.828V30.582H148.542ZM155.925 28.37L159.495 24.646C159.905 24.2073 160.223 23.8387 160.447 23.54C160.68 23.2413 160.839 22.9707 160.923 22.728C161.016 22.476 161.063 22.2147 161.063 21.944C161.063 21.3933 160.89 20.964 160.545 20.656C160.199 20.3387 159.742 20.18 159.173 20.18C158.65 20.18 158.193 20.306 157.801 20.558C157.409 20.8007 157.059 21.1693 156.751 21.664L156.037 21.034C156.41 20.446 156.858 19.998 157.381 19.69C157.903 19.382 158.51 19.228 159.201 19.228C159.779 19.228 160.283 19.34 160.713 19.564C161.151 19.788 161.487 20.1053 161.721 20.516C161.963 20.9267 162.085 21.4073 162.085 21.958C162.085 22.3407 162.033 22.6907 161.931 23.008C161.828 23.316 161.646 23.6427 161.385 23.988C161.133 24.324 160.773 24.7347 160.307 25.22L157.283 28.328L155.925 28.37ZM155.925 29V28.37L156.765 28.076H162.323V29H155.925ZM167.573 29.14C166.864 29.14 166.215 28.9393 165.627 28.538C165.039 28.1273 164.568 27.5487 164.213 26.802C163.868 26.0553 163.695 25.178 163.695 24.17C163.695 23.1527 163.868 22.28 164.213 21.552C164.558 20.8147 165.02 20.2453 165.599 19.844C166.187 19.4333 166.836 19.228 167.545 19.228C168.264 19.228 168.912 19.4287 169.491 19.83C170.079 20.2313 170.546 20.8053 170.891 21.552C171.236 22.2893 171.409 23.1667 171.409 24.184C171.409 25.192 171.236 26.0693 170.891 26.816C170.546 27.5627 170.084 28.1367 169.505 28.538C168.926 28.9393 168.282 29.14 167.573 29.14ZM167.545 28.174C168.096 28.174 168.581 28.02 169.001 27.712C169.43 27.3947 169.766 26.942 170.009 26.354C170.252 25.7567 170.373 25.0287 170.373 24.17C170.373 23.3207 170.252 22.602 170.009 22.014C169.766 21.4167 169.43 20.964 169.001 20.656C168.581 20.348 168.096 20.194 167.545 20.194C167.004 20.194 166.518 20.348 166.089 20.656C165.669 20.964 165.338 21.412 165.095 22C164.852 22.588 164.731 23.3113 164.731 24.17C164.731 25.0287 164.852 25.7567 165.095 26.354C165.338 26.942 165.669 27.3947 166.089 27.712C166.518 28.02 167.004 28.174 167.545 28.174ZM172.632 28.37L176.202 24.646C176.612 24.2073 176.93 23.8387 177.154 23.54C177.387 23.2413 177.546 22.9707 177.63 22.728C177.723 22.476 177.77 22.2147 177.77 21.944C177.77 21.3933 177.597 20.964 177.252 20.656C176.906 20.3387 176.449 20.18 175.88 20.18C175.357 20.18 174.9 20.306 174.508 20.558C174.116 20.8007 173.766 21.1693 173.458 21.664L172.744 21.034C173.117 20.446 173.565 19.998 174.088 19.69C174.61 19.382 175.217 19.228 175.908 19.228C176.486 19.228 176.99 19.34 177.42 19.564C177.858 19.788 178.194 20.1053 178.428 20.516C178.67 20.9267 178.792 21.4073 178.792 21.958C178.792 22.3407 178.74 22.6907 178.638 23.008C178.535 23.316 178.353 23.6427 178.092 23.988C177.84 24.324 177.48 24.7347 177.014 25.22L173.99 28.328L172.632 28.37ZM172.632 29V28.37L173.472 28.076H179.03V29H172.632ZM180.192 25.808L183.79 19.368H184.938L181.284 25.808H180.192ZM180.192 26.452V25.808L180.626 25.528H187.486V26.452H180.192ZM185.05 29V22.574H186.058V29H185.05Z" fill="white"/>
<path d="M49.862 53V52.048H52.69C53.446 52.048 54.1133 51.8847 54.692 51.558C55.2707 51.222 55.7233 50.7647 56.05 50.186C56.3767 49.598 56.54 48.926 56.54 48.17C56.54 47.414 56.3767 46.7467 56.05 46.168C55.7233 45.5893 55.2707 45.1367 54.692 44.81C54.1133 44.474 53.446 44.306 52.69 44.306H49.89V43.368H52.718C53.418 43.368 54.062 43.4893 54.65 43.732C55.2473 43.9653 55.7653 44.3013 56.204 44.74C56.652 45.1693 56.9973 45.678 57.24 46.266C57.4827 46.8447 57.604 47.484 57.604 48.184C57.604 48.8653 57.4827 49.5 57.24 50.088C56.9973 50.676 56.6567 51.1893 56.218 51.628C55.7793 52.0573 55.2613 52.3933 54.664 52.636C54.076 52.8787 53.4367 53 52.746 53H49.862ZM49.232 53V43.368H50.254V53H49.232ZM63.9216 53.14C63.2403 53.14 62.6056 53.014 62.0176 52.762C61.4389 52.5007 60.9303 52.146 60.4916 51.698C60.0529 51.2407 59.7076 50.7133 59.4556 50.116C59.2129 49.5093 59.0916 48.8607 59.0916 48.17C59.0916 47.47 59.2129 46.8213 59.4556 46.224C59.6983 45.6267 60.0389 45.104 60.4776 44.656C60.9163 44.208 61.4249 43.858 62.0036 43.606C62.5823 43.354 63.2123 43.228 63.8936 43.228C64.5749 43.228 65.2049 43.354 65.7836 43.606C66.3716 43.858 66.8849 44.208 67.3236 44.656C67.7623 45.104 68.1029 45.6313 68.3456 46.238C68.5883 46.8353 68.7096 47.484 68.7096 48.184C68.7096 48.8747 68.5883 49.5233 68.3456 50.13C68.1029 50.7273 67.7623 51.25 67.3236 51.698C66.8943 52.146 66.3903 52.5007 65.8116 52.762C65.2329 53.014 64.6029 53.14 63.9216 53.14ZM63.8936 52.146C64.6216 52.146 65.2656 51.9733 65.8256 51.628C66.3949 51.2827 66.8383 50.8113 67.1556 50.214C67.4823 49.6167 67.6456 48.9353 67.6456 48.17C67.6456 47.6007 67.5523 47.078 67.3656 46.602C67.1789 46.1167 66.9176 45.6967 66.5816 45.342C66.2456 44.978 65.8489 44.698 65.3916 44.502C64.9436 44.306 64.4443 44.208 63.8936 44.208C63.1749 44.208 62.5309 44.3807 61.9616 44.726C61.4016 45.062 60.9583 45.5287 60.6316 46.126C60.3143 46.7233 60.1556 47.4047 60.1556 48.17C60.1556 48.7393 60.2489 49.2667 60.4356 49.752C60.6223 50.2373 60.8836 50.662 61.2196 51.026C61.5556 51.3807 61.9523 51.656 62.4096 51.852C62.8669 52.048 63.3616 52.146 63.8936 52.146ZM75.1195 53.14C74.4289 53.14 73.7849 53.014 73.1875 52.762C72.5995 52.51 72.0862 52.1553 71.6475 51.698C71.2089 51.2407 70.8682 50.7133 70.6255 50.116C70.3922 49.5093 70.2755 48.8607 70.2755 48.17C70.2755 47.4793 70.3922 46.8353 70.6255 46.238C70.8682 45.6313 71.2042 45.104 71.6335 44.656C72.0722 44.208 72.5855 43.858 73.1735 43.606C73.7615 43.354 74.3962 43.228 75.0775 43.228C75.8149 43.228 76.4729 43.3587 77.0515 43.62C77.6395 43.8813 78.1529 44.2407 78.5915 44.698L77.8915 45.398C77.5555 45.0247 77.1495 44.7353 76.6735 44.53C76.1975 44.3153 75.6655 44.208 75.0775 44.208C74.5362 44.208 74.0369 44.306 73.5795 44.502C73.1315 44.698 72.7349 44.978 72.3895 45.342C72.0535 45.6967 71.7922 46.1167 71.6055 46.602C71.4282 47.078 71.3395 47.6007 71.3395 48.17C71.3395 48.7393 71.4329 49.2667 71.6195 49.752C71.8062 50.2373 72.0675 50.662 72.4035 51.026C72.7395 51.3807 73.1362 51.656 73.5935 51.852C74.0509 52.048 74.5502 52.146 75.0915 52.146C75.7075 52.146 76.2535 52.0387 76.7295 51.824C77.2149 51.6093 77.6255 51.3153 77.9615 50.942L78.6615 51.656C78.2322 52.1133 77.7189 52.4773 77.1215 52.748C76.5242 53.0093 75.8569 53.14 75.1195 53.14ZM87.0806 53L83.8886 48.464H83.7066L79.8986 43.368H81.1306L84.2666 47.61H84.4486L88.2986 53H87.0806ZM79.7446 53L83.5386 47.918L84.2106 48.534L80.9066 53H79.7446ZM84.5326 48.31L83.8606 47.68L86.9826 43.368H88.1446L84.5326 48.31Z" fill="#595959"/>
<circle cx="99" cy="48" r="2" fill="#595959"/>
<path d="M111.534 53V43.368H112.542V53H111.534ZM109.504 44.278V43.368H112.402V44.278H109.504ZM114.262 52.37L117.832 48.646C118.243 48.2073 118.56 47.8387 118.784 47.54C119.018 47.2413 119.176 46.9707 119.26 46.728C119.354 46.476 119.4 46.2147 119.4 45.944C119.4 45.3933 119.228 44.964 118.882 44.656C118.537 44.3387 118.08 44.18 117.51 44.18C116.988 44.18 116.53 44.306 116.138 44.558C115.746 44.8007 115.396 45.1693 115.088 45.664L114.374 45.034C114.748 44.446 115.196 43.998 115.718 43.69C116.241 43.382 116.848 43.228 117.538 43.228C118.117 43.228 118.621 43.34 119.05 43.564C119.489 43.788 119.825 44.1053 120.058 44.516C120.301 44.9267 120.422 45.4073 120.422 45.958C120.422 46.3407 120.371 46.6907 120.268 47.008C120.166 47.316 119.984 47.6427 119.722 47.988C119.47 48.324 119.111 48.7347 118.644 49.22L115.62 52.328L114.262 52.37ZM114.262 53V52.37L115.102 52.076H120.66V53H114.262ZM125.911 53.14C125.202 53.14 124.553 52.9393 123.965 52.538C123.377 52.1273 122.906 51.5487 122.551 50.802C122.206 50.0553 122.033 49.178 122.033 48.17C122.033 47.1527 122.206 46.28 122.551 45.552C122.896 44.8147 123.358 44.2453 123.937 43.844C124.525 43.4333 125.174 43.228 125.883 43.228C126.602 43.228 127.25 43.4287 127.829 43.83C128.417 44.2313 128.884 44.8053 129.229 45.552C129.574 46.2893 129.747 47.1667 129.747 48.184C129.747 49.192 129.574 50.0693 129.229 50.816C128.884 51.5627 128.422 52.1367 127.843 52.538C127.264 52.9393 126.62 53.14 125.911 53.14ZM125.883 52.174C126.434 52.174 126.919 52.02 127.339 51.712C127.768 51.3947 128.104 50.942 128.347 50.354C128.59 49.7567 128.711 49.0287 128.711 48.17C128.711 47.3207 128.59 46.602 128.347 46.014C128.104 45.4167 127.768 44.964 127.339 44.656C126.919 44.348 126.434 44.194 125.883 44.194C125.342 44.194 124.856 44.348 124.427 44.656C124.007 44.964 123.676 45.412 123.433 46C123.19 46.588 123.069 47.3113 123.069 48.17C123.069 49.0287 123.19 49.7567 123.433 50.354C123.676 50.942 124.007 51.3947 124.427 51.712C124.856 52.02 125.342 52.174 125.883 52.174ZM140.836 53L135.572 47.974L140.724 43.368H142.096L136.608 48.254V47.666L142.236 53H140.836ZM134.732 53V43.368H135.754V53H134.732ZM144.372 53V52.09H147.424C148.059 52.09 148.558 51.9127 148.922 51.558C149.286 51.2033 149.468 50.76 149.468 50.228C149.468 49.8827 149.389 49.57 149.23 49.29C149.072 49.01 148.843 48.7907 148.544 48.632C148.255 48.464 147.91 48.38 147.508 48.38H144.372V47.484H147.354C147.877 47.484 148.288 47.344 148.586 47.064C148.894 46.784 149.048 46.3873 149.048 45.874C149.048 45.3607 148.885 44.964 148.558 44.684C148.232 44.404 147.793 44.264 147.242 44.264H144.372V43.368H147.27C147.868 43.368 148.376 43.4753 148.796 43.69C149.216 43.9047 149.534 44.194 149.748 44.558C149.963 44.922 150.07 45.3327 150.07 45.79C150.07 46.3313 149.93 46.798 149.65 47.19C149.37 47.5727 148.96 47.8667 148.418 48.072L148.516 47.736C149.142 47.932 149.627 48.254 149.972 48.702C150.327 49.15 150.504 49.682 150.504 50.298C150.504 50.8113 150.378 51.2733 150.126 51.684C149.884 52.0853 149.524 52.4073 149.048 52.65C148.582 52.8833 148.017 53 147.354 53H144.372ZM143.714 53V43.368H144.736V53H143.714Z" fill="#595959"/>
<circle cx="320" cy="36" r="18" stroke="#595959" stroke-width="4"/>
<mask id="path-8-inside-1_1_1482" fill="white">
<path d="M320 16C323.354 16 326.654 16.8434 329.596 18.4526C332.539 20.0618 335.029 22.3852 336.839 25.209C338.649 28.0327 339.719 31.2662 339.952 34.612C340.185 37.9577 339.572 41.3082 338.171 44.3554C336.77 47.4025 334.625 50.0484 331.934 52.0495C329.242 54.0507 326.091 55.3429 322.769 55.8073C319.448 56.2717 316.063 55.8934 312.926 54.7071C309.789 53.5209 307.001 51.5648 304.817 49.0188L307.818 46.4458C309.57 48.4887 311.807 50.0582 314.324 51.01C316.841 51.9618 319.557 52.2654 322.222 51.8928C324.887 51.5201 327.416 50.4833 329.575 48.8776C331.735 47.2719 333.456 45.149 334.58 42.7041C335.704 40.2592 336.195 37.5708 336.009 34.8863C335.822 32.2018 334.963 29.6073 333.511 27.3416C332.059 25.0759 330.061 23.2117 327.7 21.9206C325.339 20.6294 322.691 19.9527 320 19.9527V16Z"/>
</mask>
<path d="M320 16C323.354 16 326.654 16.8434 329.596 18.4526C332.539 20.0618 335.029 22.3852 336.839 25.209C338.649 28.0327 339.719 31.2662 339.952 34.612C340.185 37.9577 339.572 41.3082 338.171 44.3554C336.77 47.4025 334.625 50.0484 331.934 52.0495C329.242 54.0507 326.091 55.3429 322.769 55.8073C319.448 56.2717 316.063 55.8934 312.926 54.7071C309.789 53.5209 307.001 51.5648 304.817 49.0188L307.818 46.4458C309.57 48.4887 311.807 50.0582 314.324 51.01C316.841 51.9618 319.557 52.2654 322.222 51.8928C324.887 51.5201 327.416 50.4833 329.575 48.8776C331.735 47.2719 333.456 45.149 334.58 42.7041C335.704 40.2592 336.195 37.5708 336.009 34.8863C335.822 32.2018 334.963 29.6073 333.511 27.3416C332.059 25.0759 330.061 23.2117 327.7 21.9206C325.339 20.6294 322.691 19.9527 320 19.9527V16Z" stroke="#D8FD87" stroke-width="8" mask="url(#path-8-inside-1_1_1482)"/>
<path d="M312.708 40.12C312.18 40.12 311.7 39.996 311.268 39.748C310.844 39.492 310.504 39.152 310.248 38.728C310 38.304 309.876 37.832 309.876 37.312C309.876 36.608 310.12 35.92 310.608 35.248L313.2 31.744H314.232L311.664 35.14L311.352 35.26C311.464 35.116 311.592 34.996 311.736 34.9C311.888 34.796 312.06 34.716 312.252 34.66C312.444 34.604 312.664 34.576 312.912 34.576C313.4 34.576 313.844 34.696 314.244 34.936C314.644 35.168 314.964 35.488 315.204 35.896C315.444 36.304 315.564 36.768 315.564 37.288C315.564 37.808 315.436 38.284 315.18 38.716C314.924 39.14 314.58 39.48 314.148 39.736C313.716 39.992 313.236 40.12 312.708 40.12ZM312.72 39.304C313.08 39.304 313.408 39.216 313.704 39.04C314.008 38.856 314.248 38.612 314.424 38.308C314.6 37.996 314.688 37.656 314.688 37.288C314.688 36.912 314.6 36.572 314.424 36.268C314.248 35.964 314.008 35.724 313.704 35.548C313.408 35.364 313.08 35.272 312.72 35.272C312.352 35.272 312.016 35.364 311.712 35.548C311.416 35.724 311.18 35.964 311.004 36.268C310.836 36.564 310.752 36.904 310.752 37.288C310.752 37.664 310.836 38.008 311.004 38.32C311.18 38.624 311.416 38.864 311.712 39.04C312.016 39.216 312.352 39.304 312.72 39.304ZM319.421 40.12C318.885 40.12 318.409 40.016 317.993 39.808C317.585 39.6 317.265 39.316 317.033 38.956C316.801 38.588 316.685 38.172 316.685 37.708C316.685 37.34 316.757 37.004 316.901 36.7C317.053 36.388 317.265 36.124 317.537 35.908C317.809 35.684 318.125 35.532 318.485 35.452L318.581 35.704C318.261 35.616 317.989 35.476 317.765 35.284C317.541 35.092 317.369 34.864 317.249 34.6C317.129 34.328 317.069 34.044 317.069 33.748C317.069 33.324 317.169 32.956 317.369 32.644C317.577 32.324 317.857 32.072 318.209 31.888C318.569 31.704 318.973 31.612 319.421 31.612C319.877 31.612 320.281 31.704 320.633 31.888C320.993 32.072 321.273 32.324 321.473 32.644C321.673 32.956 321.773 33.324 321.773 33.748C321.773 34.044 321.713 34.328 321.593 34.6C321.481 34.864 321.313 35.092 321.089 35.284C320.865 35.476 320.589 35.616 320.261 35.704L320.357 35.452C320.725 35.532 321.041 35.684 321.305 35.908C321.577 36.124 321.785 36.388 321.929 36.7C322.081 37.004 322.157 37.34 322.157 37.708C322.157 38.172 322.041 38.588 321.809 38.956C321.585 39.316 321.265 39.6 320.849 39.808C320.441 40.016 319.965 40.12 319.421 40.12ZM319.421 39.328C319.789 39.328 320.113 39.256 320.393 39.112C320.681 38.968 320.905 38.768 321.065 38.512C321.225 38.248 321.305 37.952 321.305 37.624C321.305 37.288 321.225 36.996 321.065 36.748C320.905 36.492 320.681 36.292 320.393 36.148C320.113 35.996 319.789 35.92 319.421 35.92C319.061 35.92 318.737 35.996 318.449 36.148C318.169 36.292 317.945 36.492 317.777 36.748C317.617 36.996 317.537 37.288 317.537 37.624C317.537 37.952 317.617 38.248 317.777 38.512C317.945 38.768 318.169 38.968 318.449 39.112C318.729 39.256 319.053 39.328 319.421 39.328ZM319.421 35.236C319.869 35.236 320.233 35.104 320.513 34.84C320.801 34.568 320.945 34.22 320.945 33.796C320.945 33.372 320.801 33.028 320.513 32.764C320.233 32.5 319.869 32.368 319.421 32.368C318.981 32.368 318.617 32.5 318.329 32.764C318.041 33.028 317.897 33.372 317.897 33.796C317.897 34.22 318.041 34.568 318.329 34.84C318.617 35.104 318.981 35.236 319.421 35.236ZM323.618 40L328.922 31.744H329.786L324.494 40H323.618ZM328.286 40.12C327.982 40.12 327.702 40.048 327.446 39.904C327.19 39.752 326.986 39.548 326.834 39.292C326.682 39.036 326.606 38.752 326.606 38.44C326.606 38.128 326.682 37.848 326.834 37.6C326.986 37.352 327.186 37.156 327.434 37.012C327.69 36.86 327.974 36.784 328.286 36.784C328.598 36.784 328.878 36.86 329.126 37.012C329.382 37.156 329.586 37.352 329.738 37.6C329.89 37.848 329.966 38.128 329.966 38.44C329.966 38.752 329.89 39.036 329.738 39.292C329.594 39.548 329.394 39.752 329.138 39.904C328.882 40.048 328.598 40.12 328.286 40.12ZM328.274 39.436C328.562 39.436 328.798 39.344 328.982 39.16C329.166 38.976 329.258 38.736 329.258 38.44C329.258 38.152 329.162 37.92 328.97 37.744C328.778 37.56 328.546 37.468 328.274 37.468C328.01 37.468 327.786 37.56 327.602 37.744C327.418 37.92 327.326 38.152 327.326 38.44C327.326 38.736 327.418 38.976 327.602 39.16C327.786 39.344 328.01 39.436 328.274 39.436ZM325.118 34.96C324.814 34.96 324.534 34.888 324.278 34.744C324.022 34.592 323.818 34.392 323.666 34.144C323.514 33.888 323.438 33.604 323.438 33.292C323.438 32.98 323.514 32.7 323.666 32.452C323.818 32.196 324.018 31.996 324.266 31.852C324.522 31.7 324.806 31.624 325.118 31.624C325.43 31.624 325.71 31.7 325.958 31.852C326.214 31.996 326.418 32.196 326.57 32.452C326.722 32.7 326.798 32.98 326.798 33.292C326.798 33.604 326.722 33.888 326.57 34.144C326.426 34.392 326.226 34.592 325.97 34.744C325.714 34.888 325.43 34.96 325.118 34.96ZM325.106 34.276C325.394 34.276 325.626 34.184 325.802 34C325.986 33.816 326.078 33.576 326.078 33.28C326.078 32.992 325.982 32.76 325.79 32.584C325.606 32.4 325.378 32.308 325.106 32.308C324.842 32.308 324.618 32.4 324.434 32.584C324.25 32.76 324.158 32.992 324.158 33.28C324.158 33.576 324.25 33.816 324.434 34C324.618 34.184 324.842 34.276 325.106 34.276Z" fill="white"/>
</svg>
