<svg width="356" height="72" viewBox="0 0 356 72" fill="none" xmlns="http://www.w3.org/2000/svg">
<rect x="0.5" y="0.5" width="355" height="71" rx="15.5" fill="#292929"/>
<rect x="0.5" y="0.5" width="355" height="71" rx="15.5" stroke="#3E3E3E"/>
<path d="M34.75 24.5607V28C34.75 28.4142 35.0858 28.75 35.5 28.75C35.9142 28.75 36.25 28.4142 36.25 28V24.25C36.25 24.0511 36.171 23.8603 36.0303 23.7197L30.7803 18.4697C30.6397 18.329 30.4489 18.25 30.25 18.25L21.25 18.25C20.6287 18.25 20.1893 18.6893 20.1893 18.6893C19.75 19.1287 19.75 19.75 19.75 19.75V28C19.75 28.4142 20.0858 28.75 20.5 28.75C20.9142 28.75 21.25 28.4142 21.25 28V19.75H29.9393L34.75 24.5607Z" fill="#EA4E40"/>
<path d="M30.25 25H35.5C35.9142 25 36.25 24.6642 36.25 24.25C36.25 23.8358 35.9142 23.5 35.5 23.5H31V19C31 18.5858 30.6642 18.25 30.25 18.25C29.8358 18.25 29.5 18.5858 29.5 19V24.25C29.5 24.6642 29.8358 25 30.25 25Z" fill="#EA4E40"/>
<path fill-rule="evenodd" clip-rule="evenodd" d="M19.75 36.25V31.75C19.75 31.3358 20.0858 31 20.5 31H22C22 31 22.932 31 23.591 31.659C23.591 31.659 24.25 32.318 24.25 33.25C24.25 33.25 24.25 34.182 23.591 34.841C23.591 34.841 22.932 35.5 22 35.5H21.25V36.25C21.25 36.6642 20.9142 37 20.5 37C20.0858 37 19.75 36.6642 19.75 36.25ZM22 34H21.25V32.5H22C22 32.5 22.3107 32.5 22.5303 32.7197C22.5303 32.7197 22.75 32.9393 22.75 33.25C22.75 33.25 22.75 33.5607 22.5303 33.7803C22.5303 33.7803 22.3107 34 22 34Z" fill="#EA4E40"/>
<path d="M32.875 31.75V36.25C32.875 36.6642 33.2108 37 33.625 37C34.0392 37 34.375 36.6642 34.375 36.25V32.5H36.25C36.6642 32.5 37 32.1642 37 31.75C37 31.3358 36.6642 31 36.25 31H33.625C33.2108 31 32.875 31.3358 32.875 31.75Z" fill="#EA4E40"/>
<path d="M35.875 33.625H33.625C33.2108 33.625 32.875 33.9608 32.875 34.375C32.875 34.7892 33.2108 35.125 33.625 35.125H35.875C36.2892 35.125 36.625 34.7892 36.625 34.375C36.625 33.9608 36.2892 33.625 35.875 33.625Z" fill="#EA4E40"/>
<path fill-rule="evenodd" clip-rule="evenodd" d="M26.6875 37C26.2733 37 25.9375 36.6642 25.9375 36.25V31.75C25.9375 31.3358 26.2733 31 26.6875 31H28C28 31 29.2426 31 30.1213 31.8787C30.1213 31.8787 31 32.7574 31 34C31 34 31 35.2426 30.1213 36.1213C30.1213 36.1213 29.2426 37 28 37H26.6875ZM28 35.5H27.4375V32.5H28C28 32.5 28.6213 32.5 29.0607 32.9393C29.0607 32.9393 29.5 33.3787 29.5 34C29.5 34 29.5 34.6213 29.0607 35.0607C29.0607 35.0607 28.6213 35.5 28 35.5Z" fill="#EA4E40"/>
<path d="M49.232 29V19.368H49.96L54.118 26.186H53.6L57.758 19.368H58.486V29H57.45V21.16L57.688 21.216L54.216 26.914H53.488L50.016 21.216L50.254 21.16V29H49.232ZM63.5531 29.14C62.9278 29.14 62.3678 28.9907 61.8731 28.692C61.3785 28.384 60.9865 27.9733 60.6971 27.46C60.4171 26.9467 60.2771 26.368 60.2771 25.724C60.2771 25.0707 60.4171 24.4873 60.6971 23.974C60.9865 23.4513 61.3785 23.0407 61.8731 22.742C62.3678 22.434 62.9231 22.28 63.5391 22.28C64.0431 22.28 64.4911 22.3827 64.8831 22.588C65.2845 22.784 65.6065 23.064 65.8491 23.428C66.1011 23.7827 66.2551 24.198 66.3111 24.674V26.732C66.2551 27.208 66.1011 27.628 65.8491 27.992C65.6065 28.356 65.2845 28.6407 64.8831 28.846C64.4911 29.042 64.0478 29.14 63.5531 29.14ZM63.7071 28.202C64.3885 28.202 64.9345 27.9733 65.3451 27.516C65.7651 27.0587 65.9751 26.4567 65.9751 25.71C65.9751 25.2153 65.8771 24.7813 65.6811 24.408C65.4945 24.0253 65.2285 23.7313 64.8831 23.526C64.5471 23.3113 64.1505 23.204 63.6931 23.204C63.2265 23.204 62.8111 23.3113 62.4471 23.526C62.0925 23.7407 61.8078 24.0393 61.5931 24.422C61.3878 24.7953 61.2851 25.2247 61.2851 25.71C61.2851 26.1953 61.3878 26.6247 61.5931 26.998C61.8078 27.3713 62.0971 27.6653 62.4611 27.88C62.8251 28.0947 63.2405 28.202 63.7071 28.202ZM65.9191 29V27.236L66.1151 25.612L65.9191 24.03V22.42H66.8991V29H65.9191ZM68.8866 29V22.42H69.8666V29H68.8866ZM69.8666 25.164L69.4606 24.982C69.4606 24.1513 69.6612 23.4933 70.0626 23.008C70.4732 22.5227 71.0332 22.28 71.7426 22.28C72.0692 22.28 72.3679 22.3407 72.6386 22.462C72.9092 22.574 73.1612 22.756 73.3946 23.008L72.7506 23.694C72.5919 23.5167 72.4146 23.3907 72.2186 23.316C72.0319 23.2413 71.8172 23.204 71.5746 23.204C71.0706 23.204 70.6599 23.372 70.3426 23.708C70.0252 24.0347 69.8666 24.52 69.8666 25.164ZM78.6794 29L75.3194 25.626L78.6234 22.42H79.8414L76.2434 25.878L76.2854 25.318L79.9814 29H78.6794ZM74.4374 29V19.088H75.4174V29H74.4374ZM83.8328 29.14C83.1701 29.14 82.5774 28.9907 82.0548 28.692C81.5321 28.3933 81.1168 27.9827 80.8088 27.46C80.5101 26.9373 80.3608 26.3493 80.3608 25.696C80.3608 25.052 80.5101 24.4733 80.8088 23.96C81.1074 23.4373 81.5134 23.0267 82.0268 22.728C82.5401 22.4293 83.1141 22.28 83.7488 22.28C84.3461 22.28 84.8734 22.4153 85.3308 22.686C85.7974 22.9567 86.1614 23.3347 86.4228 23.82C86.6934 24.296 86.8288 24.8467 86.8288 25.472C86.8288 25.5467 86.8241 25.6353 86.8148 25.738C86.8054 25.8313 86.7868 25.9433 86.7588 26.074H81.0608V25.234H86.2268L85.8768 25.542C85.8861 25.0567 85.8021 24.6413 85.6248 24.296C85.4568 23.9413 85.2094 23.6707 84.8828 23.484C84.5654 23.288 84.1781 23.19 83.7208 23.19C83.2448 23.19 82.8294 23.2927 82.4748 23.498C82.1201 23.7033 81.8401 23.9927 81.6348 24.366C81.4388 24.73 81.3408 25.164 81.3408 25.668C81.3408 26.172 81.4434 26.6153 81.6488 26.998C81.8634 27.3807 82.1574 27.6793 82.5308 27.894C82.9134 28.1087 83.3521 28.216 83.8468 28.216C84.2481 28.216 84.6168 28.146 84.9528 28.006C85.2888 27.8567 85.5734 27.6373 85.8068 27.348L86.4368 27.992C86.1288 28.356 85.7461 28.6407 85.2888 28.846C84.8408 29.042 84.3554 29.14 83.8328 29.14ZM89.1039 29V19.648H90.0839V29H89.1039ZM87.4379 23.302V22.42H91.7359V23.302H87.4379ZM92.6518 30.582V29.742H98.9378V30.582H92.6518ZM103.408 29V19.634H104.444V29H103.408ZM100.02 20.306V19.368H107.832V20.306H100.02ZM107.783 29V22.42H108.763V29H107.783ZM108.763 25.164L108.357 24.982C108.357 24.1513 108.558 23.4933 108.959 23.008C109.37 22.5227 109.93 22.28 110.639 22.28C110.966 22.28 111.264 22.3407 111.535 22.462C111.806 22.574 112.058 22.756 112.291 23.008L111.647 23.694C111.488 23.5167 111.311 23.3907 111.115 23.316C110.928 23.2413 110.714 23.204 110.471 23.204C109.967 23.204 109.556 23.372 109.239 23.708C108.922 24.0347 108.763 24.52 108.763 25.164ZM116.139 29.14C115.477 29.14 114.884 28.9907 114.361 28.692C113.839 28.3933 113.423 27.9827 113.115 27.46C112.817 26.9373 112.667 26.3493 112.667 25.696C112.667 25.052 112.817 24.4733 113.115 23.96C113.414 23.4373 113.82 23.0267 114.333 22.728C114.847 22.4293 115.421 22.28 116.055 22.28C116.653 22.28 117.18 22.4153 117.637 22.686C118.104 22.9567 118.468 23.3347 118.729 23.82C119 24.296 119.135 24.8467 119.135 25.472C119.135 25.5467 119.131 25.6353 119.121 25.738C119.112 25.8313 119.093 25.9433 119.065 26.074H113.367V25.234H118.533L118.183 25.542C118.193 25.0567 118.109 24.6413 117.931 24.296C117.763 23.9413 117.516 23.6707 117.189 23.484C116.872 23.288 116.485 23.19 116.027 23.19C115.551 23.19 115.136 23.2927 114.781 23.498C114.427 23.7033 114.147 23.9927 113.941 24.366C113.745 24.73 113.647 25.164 113.647 25.668C113.647 26.172 113.75 26.6153 113.955 26.998C114.17 27.3807 114.464 27.6793 114.837 27.894C115.22 28.1087 115.659 28.216 116.153 28.216C116.555 28.216 116.923 28.146 117.259 28.006C117.595 27.8567 117.88 27.6373 118.113 27.348L118.743 27.992C118.435 28.356 118.053 28.6407 117.595 28.846C117.147 29.042 116.662 29.14 116.139 29.14ZM125.423 29V25.136C125.423 24.5573 125.25 24.0907 124.905 23.736C124.569 23.372 124.121 23.19 123.561 23.19C123.178 23.19 122.842 23.274 122.553 23.442C122.263 23.61 122.035 23.8387 121.867 24.128C121.699 24.4173 121.615 24.7487 121.615 25.122L121.167 24.87C121.167 24.3753 121.283 23.932 121.517 23.54C121.75 23.148 122.063 22.84 122.455 22.616C122.856 22.392 123.313 22.28 123.827 22.28C124.331 22.28 124.779 22.4013 125.171 22.644C125.563 22.8867 125.866 23.2133 126.081 23.624C126.305 24.0347 126.417 24.4827 126.417 24.968V29H125.423ZM120.635 29V22.42H121.615V29H120.635ZM131.05 29.14C130.443 29.14 129.897 28.9907 129.412 28.692C128.927 28.3933 128.539 27.9873 128.25 27.474C127.97 26.9513 127.83 26.368 127.83 25.724C127.83 25.0707 127.97 24.4873 128.25 23.974C128.539 23.4513 128.927 23.0407 129.412 22.742C129.897 22.434 130.443 22.28 131.05 22.28C131.545 22.28 131.993 22.378 132.394 22.574C132.795 22.77 133.127 23.05 133.388 23.414C133.659 23.7687 133.817 24.1887 133.864 24.674V26.732C133.808 27.208 133.649 27.628 133.388 27.992C133.136 28.3467 132.809 28.6267 132.408 28.832C132.007 29.0373 131.554 29.14 131.05 29.14ZM131.218 28.202C131.675 28.202 132.077 28.0993 132.422 27.894C132.767 27.6793 133.038 27.3853 133.234 27.012C133.43 26.6293 133.528 26.1953 133.528 25.71C133.528 25.2153 133.425 24.7813 133.22 24.408C133.024 24.0347 132.753 23.7407 132.408 23.526C132.063 23.3113 131.661 23.204 131.204 23.204C130.747 23.204 130.341 23.3113 129.986 23.526C129.631 23.7407 129.351 24.0393 129.146 24.422C128.95 24.7953 128.852 25.2247 128.852 25.71C128.852 26.1953 128.95 26.6293 129.146 27.012C129.351 27.3853 129.631 27.6793 129.986 27.894C130.35 28.0993 130.761 28.202 131.218 28.202ZM134.452 29H133.472V27.236L133.668 25.612L133.472 24.03V19.088H134.452V29ZM138.455 29.14C138.101 29.14 137.76 29.0933 137.433 29C137.107 28.8973 136.808 28.7573 136.537 28.58C136.276 28.4027 136.047 28.1927 135.851 27.95L136.481 27.306C136.743 27.6233 137.037 27.8613 137.363 28.02C137.699 28.1693 138.073 28.244 138.483 28.244C138.922 28.244 139.263 28.16 139.505 27.992C139.757 27.824 139.883 27.5907 139.883 27.292C139.883 27.012 139.795 26.7927 139.617 26.634C139.44 26.4753 139.211 26.3493 138.931 26.256C138.661 26.1627 138.371 26.074 138.063 25.99C137.755 25.8967 137.461 25.7847 137.181 25.654C136.901 25.514 136.673 25.3227 136.495 25.08C136.327 24.8373 136.243 24.52 136.243 24.128C136.243 23.7547 136.332 23.4327 136.509 23.162C136.696 22.882 136.957 22.6673 137.293 22.518C137.639 22.3593 138.045 22.28 138.511 22.28C139.006 22.28 139.454 22.3687 139.855 22.546C140.257 22.7233 140.579 22.9847 140.821 23.33L140.191 23.96C139.995 23.708 139.748 23.5167 139.449 23.386C139.16 23.246 138.833 23.176 138.469 23.176C138.049 23.176 137.727 23.26 137.503 23.428C137.289 23.5867 137.181 23.7967 137.181 24.058C137.181 24.31 137.27 24.5107 137.447 24.66C137.625 24.8 137.849 24.9167 138.119 25.01C138.399 25.094 138.693 25.1827 139.001 25.276C139.309 25.36 139.603 25.4767 139.883 25.626C140.163 25.766 140.387 25.962 140.555 26.214C140.733 26.4567 140.821 26.788 140.821 27.208C140.821 27.796 140.607 28.2673 140.177 28.622C139.757 28.9673 139.183 29.14 138.455 29.14ZM141.939 30.582V29.742H148.225V30.582H141.939ZM154.375 29.14C153.694 29.14 153.059 29.014 152.471 28.762C151.883 28.5007 151.37 28.146 150.931 27.698C150.492 27.2407 150.152 26.7133 149.909 26.116C149.666 25.5093 149.545 24.8607 149.545 24.17C149.545 23.47 149.666 22.8213 149.909 22.224C150.152 21.6267 150.488 21.104 150.917 20.656C151.356 20.208 151.864 19.858 152.443 19.606C153.031 19.354 153.666 19.228 154.347 19.228C155.028 19.228 155.658 19.354 156.237 19.606C156.825 19.858 157.334 20.208 157.763 20.656C158.202 21.104 158.542 21.6313 158.785 22.238C159.037 22.8353 159.163 23.484 159.163 24.184C159.163 24.8747 159.042 25.5233 158.799 26.13C158.556 26.7273 158.216 27.25 157.777 27.698C157.338 28.146 156.83 28.5007 156.251 28.762C155.672 29.014 155.047 29.14 154.375 29.14ZM159.191 29.686L154.501 25.01L155.159 24.352L159.849 29.028L159.191 29.686ZM154.347 28.146C155.075 28.146 155.719 27.9733 156.279 27.628C156.839 27.2827 157.282 26.8113 157.609 26.214C157.936 25.6167 158.099 24.9353 158.099 24.17C158.099 23.6007 158.006 23.078 157.819 22.602C157.632 22.1167 157.371 21.6967 157.035 21.342C156.699 20.978 156.302 20.698 155.845 20.502C155.388 20.306 154.888 20.208 154.347 20.208C153.619 20.208 152.975 20.3807 152.415 20.726C151.855 21.062 151.412 21.5287 151.085 22.126C150.768 22.7233 150.609 23.4047 150.609 24.17C150.609 24.7393 150.702 25.2667 150.889 25.752C151.076 26.2373 151.332 26.662 151.659 27.026C151.995 27.3807 152.392 27.656 152.849 27.852C153.306 28.048 153.806 28.146 154.347 28.146ZM162.725 29V19.368H163.733V29H162.725ZM160.695 20.278V19.368H163.593V20.278H160.695ZM165.482 30.582V29.742H171.768V30.582H165.482ZM172.864 28.37L176.434 24.646C176.845 24.2073 177.162 23.8387 177.386 23.54C177.619 23.2413 177.778 22.9707 177.862 22.728C177.955 22.476 178.002 22.2147 178.002 21.944C178.002 21.3933 177.829 20.964 177.484 20.656C177.139 20.3387 176.681 20.18 176.112 20.18C175.589 20.18 175.132 20.306 174.74 20.558C174.348 20.8007 173.998 21.1693 173.69 21.664L172.976 21.034C173.349 20.446 173.797 19.998 174.32 19.69C174.843 19.382 175.449 19.228 176.14 19.228C176.719 19.228 177.223 19.34 177.652 19.564C178.091 19.788 178.427 20.1053 178.66 20.516C178.903 20.9267 179.024 21.4073 179.024 21.958C179.024 22.3407 178.973 22.6907 178.87 23.008C178.767 23.316 178.585 23.6427 178.324 23.988C178.072 24.324 177.713 24.7347 177.246 25.22L174.222 28.328L172.864 28.37ZM172.864 29V28.37L173.704 28.076H179.262V29H172.864ZM184.513 29.14C183.803 29.14 183.155 28.9393 182.567 28.538C181.979 28.1273 181.507 27.5487 181.153 26.802C180.807 26.0553 180.635 25.178 180.635 24.17C180.635 23.1527 180.807 22.28 181.153 21.552C181.498 20.8147 181.96 20.2453 182.539 19.844C183.127 19.4333 183.775 19.228 184.485 19.228C185.203 19.228 185.852 19.4287 186.431 19.83C187.019 20.2313 187.485 20.8053 187.831 21.552C188.176 22.2893 188.349 23.1667 188.349 24.184C188.349 25.192 188.176 26.0693 187.831 26.816C187.485 27.5627 187.023 28.1367 186.445 28.538C185.866 28.9393 185.222 29.14 184.513 29.14ZM184.485 28.174C185.035 28.174 185.521 28.02 185.941 27.712C186.37 27.3947 186.706 26.942 186.949 26.354C187.191 25.7567 187.313 25.0287 187.313 24.17C187.313 23.3207 187.191 22.602 186.949 22.014C186.706 21.4167 186.37 20.964 185.941 20.656C185.521 20.348 185.035 20.194 184.485 20.194C183.943 20.194 183.458 20.348 183.029 20.656C182.609 20.964 182.277 21.412 182.035 22C181.792 22.588 181.671 23.3113 181.671 24.17C181.671 25.0287 181.792 25.7567 182.035 26.354C182.277 26.942 182.609 27.3947 183.029 27.712C183.458 28.02 183.943 28.174 184.485 28.174ZM189.571 28.37L193.141 24.646C193.552 24.2073 193.869 23.8387 194.093 23.54C194.326 23.2413 194.485 22.9707 194.569 22.728C194.662 22.476 194.709 22.2147 194.709 21.944C194.709 21.3933 194.536 20.964 194.191 20.656C193.846 20.3387 193.388 20.18 192.819 20.18C192.296 20.18 191.839 20.306 191.447 20.558C191.055 20.8007 190.705 21.1693 190.397 21.664L189.683 21.034C190.056 20.446 190.504 19.998 191.027 19.69C191.55 19.382 192.156 19.228 192.847 19.228C193.426 19.228 193.93 19.34 194.359 19.564C194.798 19.788 195.134 20.1053 195.367 20.516C195.61 20.9267 195.731 21.4073 195.731 21.958C195.731 22.3407 195.68 22.6907 195.577 23.008C195.474 23.316 195.292 23.6427 195.031 23.988C194.779 24.324 194.42 24.7347 193.953 25.22L190.929 28.328L189.571 28.37ZM189.571 29V28.37L190.411 28.076H195.969V29H189.571ZM200.072 29.14C199.437 29.14 198.868 29.0187 198.364 28.776C197.86 28.5333 197.435 28.1833 197.09 27.726L197.776 27.04C198.009 27.3947 198.322 27.6747 198.714 27.88C199.115 28.076 199.563 28.174 200.058 28.174C200.524 28.174 200.935 28.0853 201.29 27.908C201.644 27.7213 201.92 27.4647 202.116 27.138C202.321 26.802 202.424 26.41 202.424 25.962C202.424 25.5047 202.326 25.1127 202.13 24.786C201.934 24.45 201.668 24.1933 201.332 24.016C200.996 23.8387 200.618 23.75 200.198 23.75C199.796 23.75 199.428 23.806 199.092 23.918C198.765 24.0207 198.466 24.1887 198.196 24.422L198.168 23.75C198.336 23.5633 198.527 23.4093 198.742 23.288C198.956 23.1667 199.194 23.0733 199.456 23.008C199.726 22.9427 200.025 22.91 200.352 22.91C200.996 22.91 201.551 23.05 202.018 23.33C202.484 23.6007 202.839 23.9693 203.082 24.436C203.334 24.9027 203.46 25.43 203.46 26.018C203.46 26.6247 203.315 27.1613 203.026 27.628C202.736 28.0947 202.335 28.4633 201.822 28.734C201.318 29.0047 200.734 29.14 200.072 29.14ZM198.196 24.422L197.65 23.862L198.07 19.368H199.008L198.546 23.96L198.196 24.422ZM198.322 20.278L198.07 19.368H203.026V20.278H198.322Z" fill="white"/>
<path d="M49.89 49.136V48.226H52.732C53.124 48.226 53.474 48.1467 53.782 47.988C54.0993 47.8293 54.3467 47.6053 54.524 47.316C54.7107 47.0173 54.804 46.6627 54.804 46.252C54.804 45.8413 54.7107 45.4913 54.524 45.202C54.3467 44.9033 54.0993 44.6747 53.782 44.516C53.474 44.348 53.124 44.264 52.732 44.264H49.89V43.368H52.802C53.3807 43.368 53.8987 43.4893 54.356 43.732C54.8133 43.9653 55.1727 44.2967 55.434 44.726C55.7047 45.1553 55.84 45.664 55.84 46.252C55.84 46.8307 55.7047 47.3393 55.434 47.778C55.1727 48.2073 54.8133 48.5433 54.356 48.786C53.8987 49.0193 53.3807 49.136 52.802 49.136H49.89ZM49.232 53V43.368H50.254V53H49.232ZM58.2565 53V52.048H61.0845C61.8405 52.048 62.5079 51.8847 63.0865 51.558C63.6652 51.222 64.1179 50.7647 64.4445 50.186C64.7712 49.598 64.9345 48.926 64.9345 48.17C64.9345 47.414 64.7712 46.7467 64.4445 46.168C64.1179 45.5893 63.6652 45.1367 63.0865 44.81C62.5079 44.474 61.8405 44.306 61.0845 44.306H58.2845V43.368H61.1125C61.8125 43.368 62.4565 43.4893 63.0445 43.732C63.6419 43.9653 64.1599 44.3013 64.5985 44.74C65.0465 45.1693 65.3919 45.678 65.6345 46.266C65.8772 46.8447 65.9985 47.484 65.9985 48.184C65.9985 48.8653 65.8772 49.5 65.6345 50.088C65.3919 50.676 65.0512 51.1893 64.6125 51.628C64.1739 52.0573 63.6559 52.3933 63.0585 52.636C62.4705 52.8787 61.8312 53 61.1405 53H58.2565ZM57.6265 53V43.368H58.6485V53H57.6265ZM67.9761 53V43.368H68.9981V53H67.9761ZM68.6481 48.646V47.708H73.8141V48.646H68.6481ZM68.6481 44.306V43.368H74.0521V44.306H68.6481Z" fill="#595959"/>
<circle cx="85" cy="48" r="2" fill="#595959"/>
<path d="M95.532 52.37L99.102 48.646C99.5127 48.2073 99.83 47.8387 100.054 47.54C100.287 47.2413 100.446 46.9707 100.53 46.728C100.623 46.476 100.67 46.2147 100.67 45.944C100.67 45.3933 100.497 44.964 100.152 44.656C99.8067 44.3387 99.3493 44.18 98.78 44.18C98.2573 44.18 97.8 44.306 97.408 44.558C97.016 44.8007 96.666 45.1693 96.358 45.664L95.644 45.034C96.0173 44.446 96.4653 43.998 96.988 43.69C97.5107 43.382 98.1173 43.228 98.808 43.228C99.3867 43.228 99.8907 43.34 100.32 43.564C100.759 43.788 101.095 44.1053 101.328 44.516C101.571 44.9267 101.692 45.4073 101.692 45.958C101.692 46.3407 101.641 46.6907 101.538 47.008C101.435 47.316 101.253 47.6427 100.992 47.988C100.74 48.324 100.381 48.7347 99.914 49.22L96.89 52.328L95.532 52.37ZM95.532 53V52.37L96.372 52.076H101.93V53H95.532ZM106.425 53.14C105.799 53.14 105.244 53.0187 104.759 52.776C104.283 52.5333 103.909 52.202 103.639 51.782C103.368 51.3527 103.233 50.8673 103.233 50.326C103.233 49.8967 103.317 49.5047 103.485 49.15C103.662 48.786 103.909 48.478 104.227 48.226C104.544 47.9647 104.913 47.7873 105.333 47.694L105.445 47.988C105.071 47.8853 104.754 47.722 104.493 47.498C104.231 47.274 104.031 47.008 103.891 46.7C103.751 46.3827 103.681 46.0513 103.681 45.706C103.681 45.2113 103.797 44.782 104.031 44.418C104.273 44.0447 104.6 43.7507 105.011 43.536C105.431 43.3213 105.902 43.214 106.425 43.214C106.957 43.214 107.428 43.3213 107.839 43.536C108.259 43.7507 108.585 44.0447 108.819 44.418C109.052 44.782 109.169 45.2113 109.169 45.706C109.169 46.0513 109.099 46.3827 108.959 46.7C108.828 47.008 108.632 47.274 108.371 47.498C108.109 47.722 107.787 47.8853 107.405 47.988L107.517 47.694C107.946 47.7873 108.315 47.9647 108.623 48.226C108.94 48.478 109.183 48.786 109.351 49.15C109.528 49.5047 109.617 49.8967 109.617 50.326C109.617 50.8673 109.481 51.3527 109.211 51.782C108.949 52.202 108.576 52.5333 108.091 52.776C107.615 53.0187 107.059 53.14 106.425 53.14ZM106.425 52.216C106.854 52.216 107.232 52.132 107.559 51.964C107.895 51.796 108.156 51.5627 108.343 51.264C108.529 50.956 108.623 50.6107 108.623 50.228C108.623 49.836 108.529 49.4953 108.343 49.206C108.156 48.9073 107.895 48.674 107.559 48.506C107.232 48.3287 106.854 48.24 106.425 48.24C106.005 48.24 105.627 48.3287 105.291 48.506C104.964 48.674 104.703 48.9073 104.507 49.206C104.32 49.4953 104.227 49.836 104.227 50.228C104.227 50.6107 104.32 50.956 104.507 51.264C104.703 51.5627 104.964 51.796 105.291 51.964C105.617 52.132 105.995 52.216 106.425 52.216ZM106.425 47.442C106.947 47.442 107.372 47.288 107.699 46.98C108.035 46.6627 108.203 46.2567 108.203 45.762C108.203 45.2673 108.035 44.866 107.699 44.558C107.372 44.25 106.947 44.096 106.425 44.096C105.911 44.096 105.487 44.25 105.151 44.558C104.815 44.866 104.647 45.2673 104.647 45.762C104.647 46.2567 104.815 46.6627 105.151 46.98C105.487 47.288 105.911 47.442 106.425 47.442ZM113.443 53.14C112.827 53.14 112.262 53.0187 111.749 52.776C111.245 52.5333 110.82 52.1833 110.475 51.726L111.161 51.04C111.394 51.3947 111.711 51.6747 112.113 51.88C112.514 52.076 112.953 52.174 113.429 52.174C113.895 52.174 114.297 52.0853 114.633 51.908C114.978 51.7307 115.244 51.4833 115.431 51.166C115.627 50.8393 115.725 50.4613 115.725 50.032C115.725 49.5933 115.627 49.2153 115.431 48.898C115.244 48.5807 114.973 48.3333 114.619 48.156C114.273 47.9787 113.858 47.89 113.373 47.89C113.214 47.89 113.051 47.8993 112.883 47.918C112.724 47.9367 112.565 47.9693 112.407 48.016L112.799 47.442C112.957 47.358 113.13 47.2927 113.317 47.246C113.503 47.1993 113.709 47.176 113.933 47.176C114.465 47.176 114.945 47.302 115.375 47.554C115.804 47.7967 116.14 48.1373 116.383 48.576C116.635 49.0053 116.761 49.5047 116.761 50.074C116.761 50.6807 116.621 51.2127 116.341 51.67C116.061 52.1273 115.669 52.4867 115.165 52.748C114.67 53.0093 114.096 53.14 113.443 53.14ZM112.407 48.016V47.386L115.459 43.956L116.649 43.998L113.541 47.47L112.407 48.016ZM110.895 44.278V43.368H116.649V43.998L115.767 44.278H110.895ZM127.807 53L122.543 47.974L127.695 43.368H129.067L123.579 48.254V47.666L129.207 53H127.807ZM121.703 53V43.368H122.725V53H121.703ZM131.343 53V52.09H134.395C135.03 52.09 135.529 51.9127 135.893 51.558C136.257 51.2033 136.439 50.76 136.439 50.228C136.439 49.8827 136.36 49.57 136.201 49.29C136.042 49.01 135.814 48.7907 135.515 48.632C135.226 48.464 134.88 48.38 134.479 48.38H131.343V47.484H134.325C134.848 47.484 135.258 47.344 135.557 47.064C135.865 46.784 136.019 46.3873 136.019 45.874C136.019 45.3607 135.856 44.964 135.529 44.684C135.202 44.404 134.764 44.264 134.213 44.264H131.343V43.368H134.241C134.838 43.368 135.347 43.4753 135.767 43.69C136.187 43.9047 136.504 44.194 136.719 44.558C136.934 44.922 137.041 45.3327 137.041 45.79C137.041 46.3313 136.901 46.798 136.621 47.19C136.341 47.5727 135.93 47.8667 135.389 48.072L135.487 47.736C136.112 47.932 136.598 48.254 136.943 48.702C137.298 49.15 137.475 49.682 137.475 50.298C137.475 50.8113 137.349 51.2733 137.097 51.684C136.854 52.0853 136.495 52.4073 136.019 52.65C135.552 52.8833 134.988 53 134.325 53H131.343ZM130.685 53V43.368H131.707V53H130.685Z" fill="#595959"/>
<circle cx="320" cy="36" r="18" stroke="#595959" stroke-width="4"/>
<mask id="path-13-inside-1_1_1502" fill="white">
<path d="M320 16C323.766 16 327.456 17.0634 330.644 19.0677C333.833 21.072 336.39 23.9359 338.023 27.3297C339.656 30.7235 340.297 34.5093 339.873 38.2514C339.449 41.9936 337.977 45.54 335.626 48.4825L332.538 46.0156C334.424 43.6546 335.605 40.8091 335.945 37.8065C336.286 34.8039 335.771 31.7663 334.461 29.0432C333.151 26.3201 331.099 24.0223 328.54 22.4141C325.982 20.8059 323.022 19.9527 320 19.9527V16Z"/>
</mask>
<path d="M320 16C323.766 16 327.456 17.0634 330.644 19.0677C333.833 21.072 336.39 23.9359 338.023 27.3297C339.656 30.7235 340.297 34.5093 339.873 38.2514C339.449 41.9936 337.977 45.54 335.626 48.4825L332.538 46.0156C334.424 43.6546 335.605 40.8091 335.945 37.8065C336.286 34.8039 335.771 31.7663 334.461 29.0432C333.151 26.3201 331.099 24.0223 328.54 22.4141C325.982 20.8059 323.022 19.9527 320 19.9527V16Z" stroke="#D8FD87" stroke-width="8" mask="url(#path-13-inside-1_1_1502)"/>
<path d="M312.4 40.12C311.872 40.12 311.388 40.016 310.948 39.808C310.516 39.6 310.152 39.3 309.856 38.908L310.444 38.32C310.644 38.624 310.916 38.864 311.26 39.04C311.604 39.208 311.98 39.292 312.388 39.292C312.788 39.292 313.132 39.216 313.42 39.064C313.716 38.912 313.944 38.7 314.104 38.428C314.272 38.148 314.356 37.824 314.356 37.456C314.356 37.08 314.272 36.756 314.104 36.484C313.944 36.212 313.712 36 313.408 35.848C313.112 35.696 312.756 35.62 312.34 35.62C312.204 35.62 312.064 35.628 311.92 35.644C311.784 35.66 311.648 35.688 311.512 35.728L311.848 35.236C311.984 35.164 312.132 35.108 312.292 35.068C312.452 35.028 312.628 35.008 312.82 35.008C313.276 35.008 313.688 35.116 314.056 35.332C314.424 35.54 314.712 35.832 314.92 36.208C315.136 36.576 315.244 37.004 315.244 37.492C315.244 38.012 315.124 38.468 314.884 38.86C314.644 39.252 314.308 39.56 313.876 39.784C313.452 40.008 312.96 40.12 312.4 40.12ZM311.512 35.728V35.188L314.128 32.248L315.148 32.284L312.484 35.26L311.512 35.728ZM310.216 32.524V31.744H315.148V32.284L314.392 32.524H310.216ZM319.23 40.12C318.702 40.12 318.222 39.996 317.79 39.748C317.366 39.492 317.026 39.152 316.77 38.728C316.522 38.304 316.398 37.832 316.398 37.312C316.398 36.608 316.642 35.92 317.13 35.248L319.722 31.744H320.754L318.186 35.14L317.874 35.26C317.986 35.116 318.114 34.996 318.258 34.9C318.41 34.796 318.582 34.716 318.774 34.66C318.966 34.604 319.186 34.576 319.434 34.576C319.922 34.576 320.366 34.696 320.766 34.936C321.166 35.168 321.486 35.488 321.726 35.896C321.966 36.304 322.086 36.768 322.086 37.288C322.086 37.808 321.958 38.284 321.702 38.716C321.446 39.14 321.102 39.48 320.67 39.736C320.238 39.992 319.758 40.12 319.23 40.12ZM319.242 39.304C319.602 39.304 319.93 39.216 320.226 39.04C320.53 38.856 320.77 38.612 320.946 38.308C321.122 37.996 321.21 37.656 321.21 37.288C321.21 36.912 321.122 36.572 320.946 36.268C320.77 35.964 320.53 35.724 320.226 35.548C319.93 35.364 319.602 35.272 319.242 35.272C318.874 35.272 318.538 35.364 318.234 35.548C317.938 35.724 317.702 35.964 317.526 36.268C317.358 36.564 317.274 36.904 317.274 37.288C317.274 37.664 317.358 38.008 317.526 38.32C317.702 38.624 317.938 38.864 318.234 39.04C318.538 39.216 318.874 39.304 319.242 39.304ZM323.519 40L328.823 31.744H329.687L324.395 40H323.519ZM328.187 40.12C327.883 40.12 327.603 40.048 327.347 39.904C327.091 39.752 326.887 39.548 326.735 39.292C326.583 39.036 326.507 38.752 326.507 38.44C326.507 38.128 326.583 37.848 326.735 37.6C326.887 37.352 327.087 37.156 327.335 37.012C327.591 36.86 327.875 36.784 328.187 36.784C328.499 36.784 328.779 36.86 329.027 37.012C329.283 37.156 329.487 37.352 329.639 37.6C329.791 37.848 329.867 38.128 329.867 38.44C329.867 38.752 329.791 39.036 329.639 39.292C329.495 39.548 329.295 39.752 329.039 39.904C328.783 40.048 328.499 40.12 328.187 40.12ZM328.175 39.436C328.463 39.436 328.699 39.344 328.883 39.16C329.067 38.976 329.159 38.736 329.159 38.44C329.159 38.152 329.063 37.92 328.871 37.744C328.679 37.56 328.447 37.468 328.175 37.468C327.911 37.468 327.687 37.56 327.503 37.744C327.319 37.92 327.227 38.152 327.227 38.44C327.227 38.736 327.319 38.976 327.503 39.16C327.687 39.344 327.911 39.436 328.175 39.436ZM325.019 34.96C324.715 34.96 324.435 34.888 324.179 34.744C323.923 34.592 323.719 34.392 323.567 34.144C323.415 33.888 323.339 33.604 323.339 33.292C323.339 32.98 323.415 32.7 323.567 32.452C323.719 32.196 323.919 31.996 324.167 31.852C324.423 31.7 324.707 31.624 325.019 31.624C325.331 31.624 325.611 31.7 325.859 31.852C326.115 31.996 326.319 32.196 326.471 32.452C326.623 32.7 326.699 32.98 326.699 33.292C326.699 33.604 326.623 33.888 326.471 34.144C326.327 34.392 326.127 34.592 325.871 34.744C325.615 34.888 325.331 34.96 325.019 34.96ZM325.007 34.276C325.295 34.276 325.527 34.184 325.703 34C325.887 33.816 325.979 33.576 325.979 33.28C325.979 32.992 325.883 32.76 325.691 32.584C325.507 32.4 325.279 32.308 325.007 32.308C324.743 32.308 324.519 32.4 324.335 32.584C324.151 32.76 324.059 32.992 324.059 33.28C324.059 33.576 324.151 33.816 324.335 34C324.519 34.184 324.743 34.276 325.007 34.276Z" fill="white"/>
</svg>
