<svg width="356" height="72" viewBox="0 0 356 72" fill="none" xmlns="http://www.w3.org/2000/svg">
<rect x="0.5" y="0.5" width="355" height="71" rx="15.5" fill="#292929"/>
<rect x="0.5" y="0.5" width="355" height="71" rx="15.5" stroke="#3E3E3E"/>
<path d="M27.25 37H29.875C30.2892 37 30.625 36.6642 30.625 36.25C30.625 35.8358 30.2892 35.5 29.875 35.5H28V31.75C28 31.3358 27.6642 31 27.25 31C26.8358 31 26.5 31.3358 26.5 31.75V36.25C26.5 36.6642 26.8358 37 27.25 37Z" fill="#40C766"/>
<path d="M23.6498 36.6997C23.7692 36.8589 23.947 36.9643 24.1439 36.9925C24.1791 36.9975 24.2145 37 24.25 37L24.2526 37C24.414 36.9994 24.5709 36.9468 24.7 36.85C24.8889 36.7084 25 36.4861 25 36.25L24.9999 36.2402C24.9979 36.0813 24.9453 35.9271 24.85 35.8L21.475 31.3C21.3557 31.1409 21.178 31.0357 20.9811 31.0075C20.9459 31.0025 20.9105 31 20.875 31L20.8724 31C20.711 31.0006 20.5541 31.0532 20.425 31.15C20.2659 31.2693 20.1607 31.447 20.1325 31.6439C20.1275 31.6791 20.125 31.7145 20.125 31.75L20.125 31.7526C20.1256 31.914 20.1782 32.0709 20.275 32.2L23.6498 36.6997Z" fill="#40C766"/>
<path d="M20.275 35.8C20.1776 35.9298 20.125 36.0877 20.125 36.25L20.125 36.2566C20.1253 36.2899 20.1278 36.3231 20.1325 36.3561C20.1607 36.553 20.2659 36.7306 20.425 36.85C20.5548 36.9474 20.7127 37 20.875 37L20.8816 37C20.9149 36.9997 20.9481 36.9972 20.9811 36.9925C21.178 36.9643 21.3557 36.8591 21.475 36.7L24.85 32.2C24.9474 32.0702 25 31.9123 25 31.75L25 31.7434C24.9997 31.7101 24.9972 31.6769 24.9925 31.6439C24.9643 31.447 24.8591 31.2693 24.7 31.15C24.5702 31.0526 24.4123 31 24.25 31L24.2434 31C24.2101 31.0003 24.1769 31.0028 24.1439 31.0075C23.947 31.0357 23.7693 31.1409 23.65 31.3L20.275 35.8Z" fill="#40C766"/>
<path d="M33.9043 32.4062C34.437 32.4077 34.8641 32.7262 34.8641 32.7262C34.9936 32.8228 35.1509 32.875 35.3125 32.875C35.3228 32.875 35.333 32.8748 35.3433 32.8744C35.5691 32.8651 35.7786 32.7545 35.9137 32.5734C36.0103 32.4439 36.0625 32.2866 36.0625 32.125L36.0625 32.1164C36.0621 32.0831 36.0595 32.0499 36.0547 32.017C36.026 31.8201 35.9204 31.6427 35.7609 31.5238C34.9366 30.909 33.9082 30.9062 33.9082 30.9062C32.9921 30.9062 32.3986 31.4149 32.3986 31.4149C31.75 31.9709 31.75 32.875 31.75 32.875C31.75 33.768 32.5783 34.2495 32.5783 34.2495C32.9391 34.4593 33.7713 34.6801 33.7713 34.6801C34.75 34.9398 34.75 35.125 34.75 35.125C34.75 35.368 34.6152 35.4542 34.6152 35.4542C34.3972 35.5937 33.9062 35.5937 33.9062 35.5937C33.3758 35.5923 32.9489 35.2742 32.9489 35.2742C32.8193 35.1775 32.6616 35.125 32.5 35.125C32.4897 35.125 32.4795 35.1252 32.4692 35.1256C32.2434 35.1349 32.0339 35.2455 31.8988 35.4266C31.8022 35.5561 31.75 35.7134 31.75 35.875L31.75 35.8836C31.7504 35.9169 31.753 35.9501 31.7578 35.983C31.7865 36.1799 31.8921 36.3573 32.0516 36.4762C32.8757 37.0907 33.9062 37.0937 33.9062 37.0937C34.8362 37.0937 35.4238 36.7176 35.4238 36.7176C36.25 36.1889 36.25 35.125 36.25 35.125C36.25 34.1909 35.4012 33.6856 35.4012 33.6856C35.0223 33.4602 34.1561 33.2303 34.1561 33.2303C33.25 32.9898 33.25 32.875 33.25 32.875C33.25 32.4062 33.9043 32.4062 33.9043 32.4062Z" fill="#40C766"/>
<path d="M34.75 24.5607V28C34.75 28.4142 35.0858 28.75 35.5 28.75C35.9142 28.75 36.25 28.4142 36.25 28V24.25C36.25 24.0511 36.171 23.8603 36.0303 23.7197L30.7803 18.4697C30.6397 18.329 30.4489 18.25 30.25 18.25L21.25 18.25C20.6287 18.25 20.1893 18.6893 20.1893 18.6893C19.75 19.1287 19.75 19.75 19.75 19.75V28C19.75 28.4142 20.0858 28.75 20.5 28.75C20.9142 28.75 21.25 28.4142 21.25 28V19.75H29.9393L34.75 24.5607Z" fill="#40C766"/>
<path d="M30.25 25H35.5C35.9142 25 36.25 24.6642 36.25 24.25C36.25 23.8358 35.9142 23.5 35.5 23.5H31V19C31 18.5858 30.6642 18.25 30.25 18.25C29.8358 18.25 29.5 18.5858 29.5 19V24.25C29.5 24.6642 29.8358 25 30.25 25Z" fill="#40C766"/>
<path d="M51.892 29.14C51.1453 29.14 50.5013 29 49.96 28.72C49.4187 28.4307 48.9427 28.0293 48.532 27.516L49.246 26.816C49.5727 27.2733 49.9507 27.614 50.38 27.838C50.8187 28.062 51.3367 28.174 51.934 28.174C52.55 28.174 53.0493 28.034 53.432 27.754C53.8147 27.474 54.006 27.0867 54.006 26.592C54.006 26.2093 53.9173 25.8967 53.74 25.654C53.5627 25.402 53.3293 25.2013 53.04 25.052C52.76 24.8933 52.4473 24.7533 52.102 24.632C51.7567 24.5107 51.4113 24.3847 51.066 24.254C50.73 24.114 50.4173 23.9413 50.128 23.736C49.8387 23.5307 49.6053 23.2693 49.428 22.952C49.26 22.6347 49.176 22.2287 49.176 21.734C49.176 21.2113 49.302 20.7633 49.554 20.39C49.806 20.0167 50.1513 19.732 50.59 19.536C51.0287 19.3307 51.528 19.228 52.088 19.228C52.7133 19.228 53.2687 19.3493 53.754 19.592C54.2487 19.8347 54.6593 20.1613 54.986 20.572L54.286 21.272C53.9873 20.9173 53.6607 20.6467 53.306 20.46C52.9513 20.2733 52.536 20.18 52.06 20.18C51.5 20.18 51.052 20.3107 50.716 20.572C50.38 20.8333 50.212 21.1973 50.212 21.664C50.212 22.028 50.296 22.322 50.464 22.546C50.6413 22.77 50.8747 22.9567 51.164 23.106C51.4533 23.2553 51.766 23.3907 52.102 23.512C52.4473 23.624 52.7927 23.75 53.138 23.89C53.4833 24.03 53.796 24.2073 54.076 24.422C54.3653 24.6367 54.5987 24.912 54.776 25.248C54.9533 25.5747 55.042 25.9947 55.042 26.508C55.042 27.3387 54.7573 27.9873 54.188 28.454C53.628 28.9113 52.8627 29.14 51.892 29.14ZM56.984 29V19.368H58.006V29H56.984ZM57.656 29V28.062H63.326V29H57.656ZM57.656 24.52V23.61H62.878V24.52H57.656ZM57.656 20.306V19.368H63.242V20.306H57.656ZM69.3493 29.14C68.668 29.14 68.0333 29.014 67.4453 28.762C66.8667 28.5007 66.358 28.146 65.9193 27.698C65.4807 27.2407 65.1353 26.7133 64.8833 26.116C64.6407 25.5093 64.5193 24.8607 64.5193 24.17C64.5193 23.47 64.6407 22.8213 64.8833 22.224C65.126 21.6267 65.4667 21.104 65.9053 20.656C66.344 20.208 66.8527 19.858 67.4313 19.606C68.01 19.354 68.64 19.228 69.3213 19.228C70.0027 19.228 70.6327 19.354 71.2113 19.606C71.7993 19.858 72.3127 20.208 72.7513 20.656C73.19 21.104 73.5307 21.6313 73.7733 22.238C74.016 22.8353 74.1373 23.484 74.1373 24.184C74.1373 24.8747 74.016 25.5233 73.7733 26.13C73.5307 26.7273 73.19 27.25 72.7513 27.698C72.322 28.146 71.818 28.5007 71.2393 28.762C70.6607 29.014 70.0307 29.14 69.3493 29.14ZM69.3213 28.146C70.0493 28.146 70.6933 27.9733 71.2533 27.628C71.8227 27.2827 72.266 26.8113 72.5833 26.214C72.91 25.6167 73.0733 24.9353 73.0733 24.17C73.0733 23.6007 72.98 23.078 72.7933 22.602C72.6067 22.1167 72.3453 21.6967 72.0093 21.342C71.6733 20.978 71.2767 20.698 70.8193 20.502C70.3713 20.306 69.872 20.208 69.3213 20.208C68.6027 20.208 67.9587 20.3807 67.3893 20.726C66.8293 21.062 66.386 21.5287 66.0593 22.126C65.742 22.7233 65.5833 23.4047 65.5833 24.17C65.5833 24.7393 65.6767 25.2667 65.8633 25.752C66.05 26.2373 66.3113 26.662 66.6473 27.026C66.9833 27.3807 67.38 27.656 67.8373 27.852C68.2947 28.048 68.7893 28.146 69.3213 28.146ZM75.4526 30.582V29.742H81.7386V30.582H75.4526ZM87.9027 29.14C87.2121 29.14 86.5681 29.014 85.9707 28.762C85.3827 28.51 84.8694 28.1553 84.4307 27.698C83.9921 27.2407 83.6514 26.7133 83.4087 26.116C83.1754 25.5093 83.0587 24.8607 83.0587 24.17C83.0587 23.4793 83.1754 22.8353 83.4087 22.238C83.6514 21.6313 83.9874 21.104 84.4167 20.656C84.8554 20.208 85.3687 19.858 85.9567 19.606C86.5447 19.354 87.1794 19.228 87.8607 19.228C88.5981 19.228 89.2561 19.3587 89.8347 19.62C90.4227 19.8813 90.9361 20.2407 91.3747 20.698L90.6747 21.398C90.3387 21.0247 89.9327 20.7353 89.4567 20.53C88.9807 20.3153 88.4487 20.208 87.8607 20.208C87.3194 20.208 86.8201 20.306 86.3627 20.502C85.9147 20.698 85.5181 20.978 85.1727 21.342C84.8367 21.6967 84.5754 22.1167 84.3887 22.602C84.2114 23.078 84.1227 23.6007 84.1227 24.17C84.1227 24.7393 84.2161 25.2667 84.4027 25.752C84.5894 26.2373 84.8507 26.662 85.1867 27.026C85.5227 27.3807 85.9194 27.656 86.3767 27.852C86.8341 28.048 87.3334 28.146 87.8747 28.146C88.4907 28.146 89.0367 28.0387 89.5127 27.824C89.9981 27.6093 90.4087 27.3153 90.7447 26.942L91.4447 27.656C91.0154 28.1133 90.5021 28.4773 89.9047 28.748C89.3074 29.0093 88.6401 29.14 87.9027 29.14ZM95.726 29.14C95.0913 29.14 94.5127 28.986 93.99 28.678C93.4767 28.37 93.066 27.9547 92.758 27.432C92.4593 26.9093 92.31 26.326 92.31 25.682C92.31 25.0473 92.4593 24.4733 92.758 23.96C93.066 23.4467 93.4767 23.0407 93.99 22.742C94.5127 22.434 95.0913 22.28 95.726 22.28C96.37 22.28 96.9487 22.4293 97.462 22.728C97.9753 23.0267 98.3813 23.4373 98.68 23.96C98.988 24.4733 99.142 25.0473 99.142 25.682C99.142 26.3353 98.988 26.9233 98.68 27.446C98.3813 27.9593 97.9753 28.37 97.462 28.678C96.9487 28.986 96.37 29.14 95.726 29.14ZM95.726 28.188C96.1927 28.188 96.6033 28.0807 96.958 27.866C97.322 27.6513 97.6067 27.3527 97.812 26.97C98.0267 26.5873 98.134 26.158 98.134 25.682C98.134 25.206 98.0267 24.786 97.812 24.422C97.6067 24.0487 97.322 23.7547 96.958 23.54C96.6033 23.3253 96.1927 23.218 95.726 23.218C95.2687 23.218 94.858 23.3253 94.494 23.54C94.13 23.7547 93.8453 24.0487 93.64 24.422C93.4347 24.786 93.332 25.206 93.332 25.682C93.332 26.1673 93.4347 26.6013 93.64 26.984C93.8453 27.3573 94.13 27.6513 94.494 27.866C94.858 28.0807 95.2687 28.188 95.726 28.188ZM100.701 29V22.42H101.681V29H100.701ZM105.223 29V24.968C105.223 24.4267 105.06 23.9973 104.733 23.68C104.406 23.3533 103.996 23.19 103.501 23.19C103.165 23.19 102.857 23.2647 102.577 23.414C102.306 23.554 102.087 23.7547 101.919 24.016C101.76 24.2773 101.681 24.59 101.681 24.954L101.233 24.772C101.233 24.268 101.345 23.8293 101.569 23.456C101.793 23.0827 102.092 22.7933 102.465 22.588C102.848 22.3827 103.277 22.28 103.753 22.28C104.22 22.28 104.635 22.3827 104.999 22.588C105.372 22.7933 105.666 23.0827 105.881 23.456C106.105 23.8293 106.217 24.2727 106.217 24.786V29H105.223ZM109.759 29V24.968C109.759 24.4267 109.596 23.9973 109.269 23.68C108.942 23.3533 108.527 23.19 108.023 23.19C107.696 23.19 107.393 23.2647 107.113 23.414C106.842 23.554 106.623 23.7547 106.455 24.016C106.296 24.2773 106.217 24.59 106.217 24.954L105.629 24.772C105.657 24.268 105.788 23.8293 106.021 23.456C106.264 23.0827 106.576 22.7933 106.959 22.588C107.351 22.3827 107.78 22.28 108.247 22.28C108.714 22.28 109.134 22.3827 109.507 22.588C109.89 22.7933 110.188 23.0827 110.403 23.456C110.627 23.8293 110.739 24.2727 110.739 24.786V29H109.759ZM115.984 29.14C115.48 29.14 115.027 29.0373 114.626 28.832C114.225 28.6267 113.893 28.3467 113.632 27.992C113.38 27.628 113.226 27.208 113.17 26.732V24.674C113.226 24.1887 113.385 23.7687 113.646 23.414C113.907 23.05 114.239 22.77 114.64 22.574C115.051 22.378 115.499 22.28 115.984 22.28C116.591 22.28 117.137 22.434 117.622 22.742C118.107 23.0407 118.49 23.4513 118.77 23.974C119.059 24.4873 119.204 25.0707 119.204 25.724C119.204 26.368 119.064 26.9467 118.784 27.46C118.504 27.9733 118.117 28.384 117.622 28.692C117.137 28.9907 116.591 29.14 115.984 29.14ZM112.582 31.772V22.42H113.562V24.1L113.366 25.696L113.562 27.306V31.772H112.582ZM115.816 28.202C116.283 28.202 116.693 28.0993 117.048 27.894C117.403 27.6793 117.678 27.3853 117.874 27.012C118.079 26.6293 118.182 26.1953 118.182 25.71C118.182 25.2153 118.079 24.7813 117.874 24.408C117.678 24.0347 117.403 23.7407 117.048 23.526C116.693 23.3113 116.287 23.204 115.83 23.204C115.373 23.204 114.967 23.3113 114.612 23.526C114.267 23.7407 113.996 24.0347 113.8 24.408C113.604 24.7813 113.506 25.2153 113.506 25.71C113.506 26.1953 113.604 26.6293 113.8 27.012C113.996 27.3853 114.267 27.6793 114.612 27.894C114.957 28.0993 115.359 28.202 115.816 28.202ZM123.627 29.14C123.002 29.14 122.442 28.9907 121.947 28.692C121.453 28.384 121.061 27.9733 120.771 27.46C120.491 26.9467 120.351 26.368 120.351 25.724C120.351 25.0707 120.491 24.4873 120.771 23.974C121.061 23.4513 121.453 23.0407 121.947 22.742C122.442 22.434 122.997 22.28 123.613 22.28C124.117 22.28 124.565 22.3827 124.957 22.588C125.359 22.784 125.681 23.064 125.923 23.428C126.175 23.7827 126.329 24.198 126.385 24.674V26.732C126.329 27.208 126.175 27.628 125.923 27.992C125.681 28.356 125.359 28.6407 124.957 28.846C124.565 29.042 124.122 29.14 123.627 29.14ZM123.781 28.202C124.463 28.202 125.009 27.9733 125.419 27.516C125.839 27.0587 126.049 26.4567 126.049 25.71C126.049 25.2153 125.951 24.7813 125.755 24.408C125.569 24.0253 125.303 23.7313 124.957 23.526C124.621 23.3113 124.225 23.204 123.767 23.204C123.301 23.204 122.885 23.3113 122.521 23.526C122.167 23.7407 121.882 24.0393 121.667 24.422C121.462 24.7953 121.359 25.2247 121.359 25.71C121.359 26.1953 121.462 26.6247 121.667 26.998C121.882 27.3713 122.171 27.6653 122.535 27.88C122.899 28.0947 123.315 28.202 123.781 28.202ZM125.993 29V27.236L126.189 25.612L125.993 24.03V22.42H126.973V29H125.993ZM128.961 29V22.42H129.941V29H128.961ZM129.941 25.164L129.535 24.982C129.535 24.1513 129.735 23.4933 130.137 23.008C130.547 22.5227 131.107 22.28 131.817 22.28C132.143 22.28 132.442 22.3407 132.713 22.462C132.983 22.574 133.235 22.756 133.469 23.008L132.825 23.694C132.666 23.5167 132.489 23.3907 132.293 23.316C132.106 23.2413 131.891 23.204 131.649 23.204C131.145 23.204 130.734 23.372 130.417 23.708C130.099 24.0347 129.941 24.52 129.941 25.164ZM134.512 29V22.42H135.506V29H134.512ZM135.002 20.992C134.815 20.992 134.656 20.9267 134.526 20.796C134.395 20.656 134.33 20.4927 134.33 20.306C134.33 20.11 134.395 19.9467 134.526 19.816C134.656 19.6853 134.815 19.62 135.002 19.62C135.207 19.62 135.37 19.6853 135.492 19.816C135.622 19.9467 135.688 20.11 135.688 20.306C135.688 20.4927 135.622 20.656 135.492 20.796C135.37 20.9267 135.207 20.992 135.002 20.992ZM139.508 29.14C139.153 29.14 138.813 29.0933 138.486 29C138.159 28.8973 137.861 28.7573 137.59 28.58C137.329 28.4027 137.1 28.1927 136.904 27.95L137.534 27.306C137.795 27.6233 138.089 27.8613 138.416 28.02C138.752 28.1693 139.125 28.244 139.536 28.244C139.975 28.244 140.315 28.16 140.558 27.992C140.81 27.824 140.936 27.5907 140.936 27.292C140.936 27.012 140.847 26.7927 140.67 26.634C140.493 26.4753 140.264 26.3493 139.984 26.256C139.713 26.1627 139.424 26.074 139.116 25.99C138.808 25.8967 138.514 25.7847 138.234 25.654C137.954 25.514 137.725 25.3227 137.548 25.08C137.38 24.8373 137.296 24.52 137.296 24.128C137.296 23.7547 137.385 23.4327 137.562 23.162C137.749 22.882 138.01 22.6673 138.346 22.518C138.691 22.3593 139.097 22.28 139.564 22.28C140.059 22.28 140.507 22.3687 140.908 22.546C141.309 22.7233 141.631 22.9847 141.874 23.33L141.244 23.96C141.048 23.708 140.801 23.5167 140.502 23.386C140.213 23.246 139.886 23.176 139.522 23.176C139.102 23.176 138.78 23.26 138.556 23.428C138.341 23.5867 138.234 23.7967 138.234 24.058C138.234 24.31 138.323 24.5107 138.5 24.66C138.677 24.8 138.901 24.9167 139.172 25.01C139.452 25.094 139.746 25.1827 140.054 25.276C140.362 25.36 140.656 25.4767 140.936 25.626C141.216 25.766 141.44 25.962 141.608 26.214C141.785 26.4567 141.874 26.788 141.874 27.208C141.874 27.796 141.659 28.2673 141.23 28.622C140.81 28.9673 140.236 29.14 139.508 29.14ZM146.408 29.14C145.773 29.14 145.194 28.986 144.672 28.678C144.158 28.37 143.748 27.9547 143.44 27.432C143.141 26.9093 142.992 26.326 142.992 25.682C142.992 25.0473 143.141 24.4733 143.44 23.96C143.748 23.4467 144.158 23.0407 144.672 22.742C145.194 22.434 145.773 22.28 146.408 22.28C147.052 22.28 147.63 22.4293 148.144 22.728C148.657 23.0267 149.063 23.4373 149.362 23.96C149.67 24.4733 149.824 25.0473 149.824 25.682C149.824 26.3353 149.67 26.9233 149.362 27.446C149.063 27.9593 148.657 28.37 148.144 28.678C147.63 28.986 147.052 29.14 146.408 29.14ZM146.408 28.188C146.874 28.188 147.285 28.0807 147.64 27.866C148.004 27.6513 148.288 27.3527 148.494 26.97C148.708 26.5873 148.816 26.158 148.816 25.682C148.816 25.206 148.708 24.786 148.494 24.422C148.288 24.0487 148.004 23.7547 147.64 23.54C147.285 23.3253 146.874 23.218 146.408 23.218C145.95 23.218 145.54 23.3253 145.176 23.54C144.812 23.7547 144.527 24.0487 144.322 24.422C144.116 24.786 144.014 25.206 144.014 25.682C144.014 26.1673 144.116 26.6013 144.322 26.984C144.527 27.3573 144.812 27.6513 145.176 27.866C145.54 28.0807 145.95 28.188 146.408 28.188ZM156.171 29V25.136C156.171 24.5573 155.998 24.0907 155.653 23.736C155.317 23.372 154.869 23.19 154.309 23.19C153.926 23.19 153.59 23.274 153.301 23.442C153.011 23.61 152.783 23.8387 152.615 24.128C152.447 24.4173 152.363 24.7487 152.363 25.122L151.915 24.87C151.915 24.3753 152.031 23.932 152.265 23.54C152.498 23.148 152.811 22.84 153.203 22.616C153.604 22.392 154.061 22.28 154.575 22.28C155.079 22.28 155.527 22.4013 155.919 22.644C156.311 22.8867 156.614 23.2133 156.829 23.624C157.053 24.0347 157.165 24.4827 157.165 24.968V29H156.171ZM151.383 29V22.42H152.363V29H151.383ZM158.564 30.582V29.742H164.85V30.582H158.564ZM171.014 29.14C170.323 29.14 169.679 29.014 169.082 28.762C168.494 28.51 167.981 28.1553 167.542 27.698C167.103 27.2407 166.763 26.7133 166.52 26.116C166.287 25.5093 166.17 24.8607 166.17 24.17C166.17 23.4793 166.287 22.8353 166.52 22.238C166.763 21.6313 167.099 21.104 167.528 20.656C167.967 20.208 168.48 19.858 169.068 19.606C169.656 19.354 170.291 19.228 170.972 19.228C171.709 19.228 172.367 19.3587 172.946 19.62C173.534 19.8813 174.047 20.2407 174.486 20.698L173.786 21.398C173.45 21.0247 173.044 20.7353 172.568 20.53C172.092 20.3153 171.56 20.208 170.972 20.208C170.431 20.208 169.931 20.306 169.474 20.502C169.026 20.698 168.629 20.978 168.284 21.342C167.948 21.6967 167.687 22.1167 167.5 22.602C167.323 23.078 167.234 23.6007 167.234 24.17C167.234 24.7393 167.327 25.2667 167.514 25.752C167.701 26.2373 167.962 26.662 168.298 27.026C168.634 27.3807 169.031 27.656 169.488 27.852C169.945 28.048 170.445 28.146 170.986 28.146C171.602 28.146 172.148 28.0387 172.624 27.824C173.109 27.6093 173.52 27.3153 173.856 26.942L174.556 27.656C174.127 28.1133 173.613 28.4773 173.016 28.748C172.419 29.0093 171.751 29.14 171.014 29.14ZM178.719 29.14C178.187 29.14 177.711 29.0187 177.291 28.776C176.871 28.524 176.54 28.1833 176.297 27.754C176.064 27.3247 175.947 26.8207 175.947 26.242V22.42H176.941V26.2C176.941 26.6013 177.011 26.9513 177.151 27.25C177.3 27.5487 177.51 27.782 177.781 27.95C178.052 28.118 178.364 28.202 178.719 28.202C179.27 28.202 179.704 28.02 180.021 27.656C180.348 27.292 180.511 26.8067 180.511 26.2V22.42H181.491V26.242C181.491 26.8113 181.374 27.3153 181.141 27.754C180.908 28.1927 180.581 28.5333 180.161 28.776C179.741 29.0187 179.26 29.14 178.719 29.14ZM185.336 29.14C184.982 29.14 184.641 29.0933 184.314 29C183.988 28.8973 183.689 28.7573 183.418 28.58C183.157 28.4027 182.928 28.1927 182.732 27.95L183.362 27.306C183.624 27.6233 183.918 27.8613 184.244 28.02C184.58 28.1693 184.954 28.244 185.364 28.244C185.803 28.244 186.144 28.16 186.386 27.992C186.638 27.824 186.764 27.5907 186.764 27.292C186.764 27.012 186.676 26.7927 186.498 26.634C186.321 26.4753 186.092 26.3493 185.812 26.256C185.542 26.1627 185.252 26.074 184.944 25.99C184.636 25.8967 184.342 25.7847 184.062 25.654C183.782 25.514 183.554 25.3227 183.376 25.08C183.208 24.8373 183.124 24.52 183.124 24.128C183.124 23.7547 183.213 23.4327 183.39 23.162C183.577 22.882 183.838 22.6673 184.174 22.518C184.52 22.3593 184.926 22.28 185.392 22.28C185.887 22.28 186.335 22.3687 186.736 22.546C187.138 22.7233 187.46 22.9847 187.702 23.33L187.072 23.96C186.876 23.708 186.629 23.5167 186.33 23.386C186.041 23.246 185.714 23.176 185.35 23.176C184.93 23.176 184.608 23.26 184.384 23.428C184.17 23.5867 184.062 23.7967 184.062 24.058C184.062 24.31 184.151 24.5107 184.328 24.66C184.506 24.8 184.73 24.9167 185 25.01C185.28 25.094 185.574 25.1827 185.882 25.276C186.19 25.36 186.484 25.4767 186.764 25.626C187.044 25.766 187.268 25.962 187.436 26.214C187.614 26.4567 187.702 26.788 187.702 27.208C187.702 27.796 187.488 28.2673 187.058 28.622C186.638 28.9673 186.064 29.14 185.336 29.14ZM190.276 29V19.648H191.256V29H190.276ZM188.61 23.302V22.42H192.908V23.302H188.61ZM197.007 29.14C196.373 29.14 195.794 28.986 195.271 28.678C194.758 28.37 194.347 27.9547 194.039 27.432C193.741 26.9093 193.591 26.326 193.591 25.682C193.591 25.0473 193.741 24.4733 194.039 23.96C194.347 23.4467 194.758 23.0407 195.271 22.742C195.794 22.434 196.373 22.28 197.007 22.28C197.651 22.28 198.23 22.4293 198.743 22.728C199.257 23.0267 199.663 23.4373 199.961 23.96C200.269 24.4733 200.423 25.0473 200.423 25.682C200.423 26.3353 200.269 26.9233 199.961 27.446C199.663 27.9593 199.257 28.37 198.743 28.678C198.23 28.986 197.651 29.14 197.007 29.14ZM197.007 28.188C197.474 28.188 197.885 28.0807 198.239 27.866C198.603 27.6513 198.888 27.3527 199.093 26.97C199.308 26.5873 199.415 26.158 199.415 25.682C199.415 25.206 199.308 24.786 199.093 24.422C198.888 24.0487 198.603 23.7547 198.239 23.54C197.885 23.3253 197.474 23.218 197.007 23.218C196.55 23.218 196.139 23.3253 195.775 23.54C195.411 23.7547 195.127 24.0487 194.921 24.422C194.716 24.786 194.613 25.206 194.613 25.682C194.613 26.1673 194.716 26.6013 194.921 26.984C195.127 27.3573 195.411 27.6513 195.775 27.866C196.139 28.0807 196.55 28.188 197.007 28.188ZM201.982 29V22.42H202.962V29H201.982ZM206.504 29V24.968C206.504 24.4267 206.341 23.9973 206.014 23.68C205.688 23.3533 205.277 23.19 204.782 23.19C204.446 23.19 204.138 23.2647 203.858 23.414C203.588 23.554 203.368 23.7547 203.2 24.016C203.042 24.2773 202.962 24.59 202.962 24.954L202.514 24.772C202.514 24.268 202.626 23.8293 202.85 23.456C203.074 23.0827 203.373 22.7933 203.746 22.588C204.129 22.3827 204.558 22.28 205.034 22.28C205.501 22.28 205.916 22.3827 206.28 22.588C206.654 22.7933 206.948 23.0827 207.162 23.456C207.386 23.8293 207.498 24.2727 207.498 24.786V29H206.504ZM211.04 29V24.968C211.04 24.4267 210.877 23.9973 210.55 23.68C210.224 23.3533 209.808 23.19 209.304 23.19C208.978 23.19 208.674 23.2647 208.394 23.414C208.124 23.554 207.904 23.7547 207.736 24.016C207.578 24.2773 207.498 24.59 207.498 24.954L206.91 24.772C206.938 24.268 207.069 23.8293 207.302 23.456C207.545 23.0827 207.858 22.7933 208.24 22.588C208.632 22.3827 209.062 22.28 209.528 22.28C209.995 22.28 210.415 22.3827 210.788 22.588C211.171 22.7933 211.47 23.0827 211.684 23.456C211.908 23.8293 212.02 24.2727 212.02 24.786V29H211.04ZM216.901 29.14C216.238 29.14 215.646 28.9907 215.123 28.692C214.6 28.3933 214.185 27.9827 213.877 27.46C213.578 26.9373 213.429 26.3493 213.429 25.696C213.429 25.052 213.578 24.4733 213.877 23.96C214.176 23.4373 214.582 23.0267 215.095 22.728C215.608 22.4293 216.182 22.28 216.817 22.28C217.414 22.28 217.942 22.4153 218.399 22.686C218.866 22.9567 219.23 23.3347 219.491 23.82C219.762 24.296 219.897 24.8467 219.897 25.472C219.897 25.5467 219.892 25.6353 219.883 25.738C219.874 25.8313 219.855 25.9433 219.827 26.074H214.129V25.234H219.295L218.945 25.542C218.954 25.0567 218.87 24.6413 218.693 24.296C218.525 23.9413 218.278 23.6707 217.951 23.484C217.634 23.288 217.246 23.19 216.789 23.19C216.313 23.19 215.898 23.2927 215.543 23.498C215.188 23.7033 214.908 23.9927 214.703 24.366C214.507 24.73 214.409 25.164 214.409 25.668C214.409 26.172 214.512 26.6153 214.717 26.998C214.932 27.3807 215.226 27.6793 215.599 27.894C215.982 28.1087 216.42 28.216 216.915 28.216C217.316 28.216 217.685 28.146 218.021 28.006C218.357 27.8567 218.642 27.6373 218.875 27.348L219.505 27.992C219.197 28.356 218.814 28.6407 218.357 28.846C217.909 29.042 217.424 29.14 216.901 29.14ZM221.396 29V22.42H222.376V29H221.396ZM222.376 25.164L221.97 24.982C221.97 24.1513 222.171 23.4933 222.572 23.008C222.983 22.5227 223.543 22.28 224.252 22.28C224.579 22.28 224.878 22.3407 225.148 22.462C225.419 22.574 225.671 22.756 225.904 23.008L225.26 23.694C225.102 23.5167 224.924 23.3907 224.728 23.316C224.542 23.2413 224.327 23.204 224.084 23.204C223.58 23.204 223.17 23.372 222.852 23.708C222.535 24.0347 222.376 24.52 222.376 25.164ZM226.759 30.582V29.742H233.045V30.582H226.759ZM235.499 24.688V23.82H238.299C238.934 23.82 239.419 23.6613 239.755 23.344C240.091 23.0173 240.259 22.5833 240.259 22.042C240.259 21.5193 240.091 21.0947 239.755 20.768C239.419 20.432 238.934 20.264 238.299 20.264H235.499V19.368H238.299C238.925 19.368 239.461 19.4847 239.909 19.718C240.357 19.942 240.698 20.2547 240.931 20.656C241.174 21.0573 241.295 21.5147 241.295 22.028C241.295 22.56 241.174 23.0267 240.931 23.428C240.698 23.8293 240.357 24.142 239.909 24.366C239.461 24.5807 238.925 24.688 238.299 24.688H235.499ZM234.841 29V19.368H235.863V29H234.841ZM240.665 29L237.053 24.548L238.047 24.226L241.981 29H240.665ZM246.077 29.14C245.414 29.14 244.822 28.9907 244.299 28.692C243.776 28.3933 243.361 27.9827 243.053 27.46C242.754 26.9373 242.605 26.3493 242.605 25.696C242.605 25.052 242.754 24.4733 243.053 23.96C243.352 23.4373 243.758 23.0267 244.271 22.728C244.784 22.4293 245.358 22.28 245.993 22.28C246.59 22.28 247.118 22.4153 247.575 22.686C248.042 22.9567 248.406 23.3347 248.667 23.82C248.938 24.296 249.073 24.8467 249.073 25.472C249.073 25.5467 249.068 25.6353 249.059 25.738C249.05 25.8313 249.031 25.9433 249.003 26.074H243.305V25.234H248.471L248.121 25.542C248.13 25.0567 248.046 24.6413 247.869 24.296C247.701 23.9413 247.454 23.6707 247.127 23.484C246.81 23.288 246.422 23.19 245.965 23.19C245.489 23.19 245.074 23.2927 244.719 23.498C244.364 23.7033 244.084 23.9927 243.879 24.366C243.683 24.73 243.585 25.164 243.585 25.668C243.585 26.172 243.688 26.6153 243.893 26.998C244.108 27.3807 244.402 27.6793 244.775 27.894C245.158 28.1087 245.596 28.216 246.091 28.216C246.492 28.216 246.861 28.146 247.197 28.006C247.533 27.8567 247.818 27.6373 248.051 27.348L248.681 27.992C248.373 28.356 247.99 28.6407 247.533 28.846C247.085 29.042 246.6 29.14 246.077 29.14ZM252.759 29L249.721 22.42H250.813L253.375 28.174H252.759L255.335 22.42H256.399L253.333 29H252.759ZM257.627 29V22.42H258.621V29H257.627ZM258.117 20.992C257.93 20.992 257.771 20.9267 257.641 20.796C257.51 20.656 257.445 20.4927 257.445 20.306C257.445 20.11 257.51 19.9467 257.641 19.816C257.771 19.6853 257.93 19.62 258.117 19.62C258.322 19.62 258.485 19.6853 258.607 19.816C258.737 19.9467 258.803 20.11 258.803 20.306C258.803 20.4927 258.737 20.656 258.607 20.796C258.485 20.9267 258.322 20.992 258.117 20.992ZM263.645 29.14C262.983 29.14 262.39 28.9907 261.867 28.692C261.345 28.3933 260.929 27.9827 260.621 27.46C260.323 26.9373 260.173 26.3493 260.173 25.696C260.173 25.052 260.323 24.4733 260.621 23.96C260.92 23.4373 261.326 23.0267 261.839 22.728C262.353 22.4293 262.927 22.28 263.561 22.28C264.159 22.28 264.686 22.4153 265.143 22.686C265.61 22.9567 265.974 23.3347 266.235 23.82C266.506 24.296 266.641 24.8467 266.641 25.472C266.641 25.5467 266.637 25.6353 266.627 25.738C266.618 25.8313 266.599 25.9433 266.571 26.074H260.873V25.234H266.039L265.689 25.542C265.699 25.0567 265.615 24.6413 265.437 24.296C265.269 23.9413 265.022 23.6707 264.695 23.484C264.378 23.288 263.991 23.19 263.533 23.19C263.057 23.19 262.642 23.2927 262.287 23.498C261.933 23.7033 261.653 23.9927 261.447 24.366C261.251 24.73 261.153 25.164 261.153 25.668C261.153 26.172 261.256 26.6153 261.461 26.998C261.676 27.3807 261.97 27.6793 262.343 27.894C262.726 28.1087 263.165 28.216 263.659 28.216C264.061 28.216 264.429 28.146 264.765 28.006C265.101 27.8567 265.386 27.6373 265.619 27.348L266.249 27.992C265.941 28.356 265.559 28.6407 265.101 28.846C264.653 29.042 264.168 29.14 263.645 29.14ZM272.174 29.14C271.941 29.14 271.75 29.0607 271.6 28.902C271.451 28.7433 271.376 28.552 271.376 28.328C271.376 28.104 271.451 27.9173 271.6 27.768C271.75 27.6093 271.941 27.53 272.174 27.53C272.398 27.53 272.585 27.6093 272.734 27.768C272.884 27.9173 272.958 28.104 272.958 28.328C272.958 28.552 272.884 28.7433 272.734 28.902C272.585 29.0607 272.398 29.14 272.174 29.14ZM275.254 29.14C275.021 29.14 274.83 29.0607 274.68 28.902C274.531 28.7433 274.456 28.552 274.456 28.328C274.456 28.104 274.531 27.9173 274.68 27.768C274.83 27.6093 275.021 27.53 275.254 27.53C275.478 27.53 275.665 27.6093 275.814 27.768C275.964 27.9173 276.038 28.104 276.038 28.328C276.038 28.552 275.964 28.7433 275.814 28.902C275.665 29.0607 275.478 29.14 275.254 29.14ZM269.094 29.14C268.861 29.14 268.67 29.0607 268.52 28.902C268.371 28.7433 268.296 28.552 268.296 28.328C268.296 28.104 268.371 27.9173 268.52 27.768C268.67 27.6093 268.861 27.53 269.094 27.53C269.318 27.53 269.505 27.6093 269.654 27.768C269.804 27.9173 269.878 28.104 269.878 28.328C269.878 28.552 269.804 28.7433 269.654 28.902C269.505 29.0607 269.318 29.14 269.094 29.14Z" fill="white"/>
<path d="M55.854 53L52.662 48.464H52.48L48.672 43.368H49.904L53.04 47.61H53.222L57.072 53H55.854ZM48.518 53L52.312 47.918L52.984 48.534L49.68 53H48.518ZM53.306 48.31L52.634 47.68L55.756 43.368H56.918L53.306 48.31ZM58.6246 53V43.368H59.6466V53H58.6246ZM59.2966 53V52.062H64.6026V53H59.2966ZM68.5854 53.14C67.8387 53.14 67.1947 53 66.6534 52.72C66.112 52.4307 65.636 52.0293 65.2254 51.516L65.9394 50.816C66.266 51.2733 66.644 51.614 67.0734 51.838C67.512 52.062 68.03 52.174 68.6274 52.174C69.2434 52.174 69.7427 52.034 70.1254 51.754C70.508 51.474 70.6994 51.0867 70.6994 50.592C70.6994 50.2093 70.6107 49.8967 70.4334 49.654C70.256 49.402 70.0227 49.2013 69.7334 49.052C69.4534 48.8933 69.1407 48.7533 68.7954 48.632C68.45 48.5107 68.1047 48.3847 67.7594 48.254C67.4234 48.114 67.1107 47.9413 66.8214 47.736C66.532 47.5307 66.2987 47.2693 66.1214 46.952C65.9534 46.6347 65.8694 46.2287 65.8694 45.734C65.8694 45.2113 65.9954 44.7633 66.2474 44.39C66.4994 44.0167 66.8447 43.732 67.2834 43.536C67.722 43.3307 68.2214 43.228 68.7814 43.228C69.4067 43.228 69.962 43.3493 70.4474 43.592C70.942 43.8347 71.3527 44.1613 71.6794 44.572L70.9794 45.272C70.6807 44.9173 70.354 44.6467 69.9994 44.46C69.6447 44.2733 69.2294 44.18 68.7534 44.18C68.1934 44.18 67.7454 44.3107 67.4094 44.572C67.0734 44.8333 66.9054 45.1973 66.9054 45.664C66.9054 46.028 66.9894 46.322 67.1574 46.546C67.3347 46.77 67.568 46.9567 67.8574 47.106C68.1467 47.2553 68.4594 47.3907 68.7954 47.512C69.1407 47.624 69.486 47.75 69.8314 47.89C70.1767 48.03 70.4894 48.2073 70.7694 48.422C71.0587 48.6367 71.292 48.912 71.4694 49.248C71.6467 49.5747 71.7354 49.9947 71.7354 50.508C71.7354 51.3387 71.4507 51.9873 70.8814 52.454C70.3214 52.9113 69.556 53.14 68.5854 53.14Z" fill="#595959"/>
<circle cx="83" cy="48" r="2" fill="#595959"/>
<path d="M96.472 53.14C95.8373 53.14 95.268 53.0187 94.764 52.776C94.26 52.5333 93.8353 52.1833 93.49 51.726L94.176 51.04C94.4093 51.3947 94.722 51.6747 95.114 51.88C95.5153 52.076 95.9633 52.174 96.458 52.174C96.9247 52.174 97.3353 52.0853 97.69 51.908C98.0447 51.7213 98.32 51.4647 98.516 51.138C98.7213 50.802 98.824 50.41 98.824 49.962C98.824 49.5047 98.726 49.1127 98.53 48.786C98.334 48.45 98.068 48.1933 97.732 48.016C97.396 47.8387 97.018 47.75 96.598 47.75C96.1967 47.75 95.828 47.806 95.492 47.918C95.1653 48.0207 94.8667 48.1887 94.596 48.422L94.568 47.75C94.736 47.5633 94.9273 47.4093 95.142 47.288C95.3567 47.1667 95.5947 47.0733 95.856 47.008C96.1267 46.9427 96.4253 46.91 96.752 46.91C97.396 46.91 97.9513 47.05 98.418 47.33C98.8847 47.6007 99.2393 47.9693 99.482 48.436C99.734 48.9027 99.86 49.43 99.86 50.018C99.86 50.6247 99.7153 51.1613 99.426 51.628C99.1367 52.0947 98.7353 52.4633 98.222 52.734C97.718 53.0047 97.1347 53.14 96.472 53.14ZM94.596 48.422L94.05 47.862L94.47 43.368H95.408L94.946 47.96L94.596 48.422ZM94.722 44.278L94.47 43.368H99.426V44.278H94.722ZM104.481 53.14C103.865 53.14 103.305 52.9953 102.801 52.706C102.307 52.4073 101.91 52.0107 101.611 51.516C101.322 51.0213 101.177 50.4707 101.177 49.864C101.177 49.0427 101.462 48.24 102.031 47.456L105.055 43.368H106.259L103.263 47.33L102.899 47.47C103.03 47.302 103.179 47.162 103.347 47.05C103.525 46.9287 103.725 46.8353 103.949 46.77C104.173 46.7047 104.43 46.672 104.719 46.672C105.289 46.672 105.807 46.812 106.273 47.092C106.74 47.3627 107.113 47.736 107.393 48.212C107.673 48.688 107.813 49.2293 107.813 49.836C107.813 50.4427 107.664 50.998 107.365 51.502C107.067 51.9967 106.665 52.3933 106.161 52.692C105.657 52.9907 105.097 53.14 104.481 53.14ZM104.495 52.188C104.915 52.188 105.298 52.0853 105.643 51.88C105.998 51.6653 106.278 51.3807 106.483 51.026C106.689 50.662 106.791 50.2653 106.791 49.836C106.791 49.3973 106.689 49.0007 106.483 48.646C106.278 48.2913 105.998 48.0113 105.643 47.806C105.298 47.5913 104.915 47.484 104.495 47.484C104.066 47.484 103.674 47.5913 103.319 47.806C102.974 48.0113 102.699 48.2913 102.493 48.646C102.297 48.9913 102.199 49.388 102.199 49.836C102.199 50.2747 102.297 50.676 102.493 51.04C102.699 51.3947 102.974 51.6747 103.319 51.88C103.674 52.0853 104.066 52.188 104.495 52.188ZM118.793 53L113.529 47.974L118.681 43.368H120.053L114.565 48.254V47.666L120.193 53H118.793ZM112.689 53V43.368H113.711V53H112.689ZM122.329 53V52.09H125.381C126.016 52.09 126.515 51.9127 126.879 51.558C127.243 51.2033 127.425 50.76 127.425 50.228C127.425 49.8827 127.346 49.57 127.187 49.29C127.029 49.01 126.8 48.7907 126.501 48.632C126.212 48.464 125.867 48.38 125.465 48.38H122.329V47.484H125.311C125.834 47.484 126.245 47.344 126.543 47.064C126.851 46.784 127.005 46.3873 127.005 45.874C127.005 45.3607 126.842 44.964 126.515 44.684C126.189 44.404 125.75 44.264 125.199 44.264H122.329V43.368H125.227C125.825 43.368 126.333 43.4753 126.753 43.69C127.173 43.9047 127.491 44.194 127.705 44.558C127.92 44.922 128.027 45.3327 128.027 45.79C128.027 46.3313 127.887 46.798 127.607 47.19C127.327 47.5727 126.917 47.8667 126.375 48.072L126.473 47.736C127.099 47.932 127.584 48.254 127.929 48.702C128.284 49.15 128.461 49.682 128.461 50.298C128.461 50.8113 128.335 51.2733 128.083 51.684C127.841 52.0853 127.481 52.4073 127.005 52.65C126.539 52.8833 125.974 53 125.311 53H122.329ZM121.671 53V43.368H122.693V53H121.671Z" fill="#595959"/>
<circle cx="320" cy="36" r="18" stroke="#595959" stroke-width="4"/>
<mask id="path-8-inside-1_1_1515" fill="white">
<path d="M320 16C324.238 16 328.366 17.346 331.789 19.8438C335.212 22.3416 337.753 25.8621 339.046 29.8976C340.339 33.9331 340.317 38.275 338.983 42.2971C337.649 46.3191 335.071 49.8134 331.623 52.2761C328.174 54.7387 324.033 56.0423 319.795 55.999C315.558 55.9556 311.444 54.5674 308.046 52.0347C304.649 49.502 302.144 45.9556 300.892 41.9071C299.641 37.8586 299.707 33.5172 301.083 29.509L304.821 30.7918C303.718 34.0078 303.664 37.4913 304.669 40.7397C305.673 43.9881 307.683 46.8336 310.409 48.8657C313.135 50.8979 316.436 52.0117 319.836 52.0465C323.236 52.0813 326.559 51.0353 329.326 49.0594C332.093 47.0835 334.161 44.2797 335.231 41.0525C336.302 37.8254 336.32 34.3416 335.282 31.1036C334.245 27.8657 332.206 25.0409 329.459 23.0368C326.712 21.0326 323.4 19.9527 320 19.9527V16Z"/>
</mask>
<path d="M320 16C324.238 16 328.366 17.346 331.789 19.8438C335.212 22.3416 337.753 25.8621 339.046 29.8976C340.339 33.9331 340.317 38.275 338.983 42.2971C337.649 46.3191 335.071 49.8134 331.623 52.2761C328.174 54.7387 324.033 56.0423 319.795 55.999C315.558 55.9556 311.444 54.5674 308.046 52.0347C304.649 49.502 302.144 45.9556 300.892 41.9071C299.641 37.8586 299.707 33.5172 301.083 29.509L304.821 30.7918C303.718 34.0078 303.664 37.4913 304.669 40.7397C305.673 43.9881 307.683 46.8336 310.409 48.8657C313.135 50.8979 316.436 52.0117 319.836 52.0465C323.236 52.0813 326.559 51.0353 329.326 49.0594C332.093 47.0835 334.161 44.2797 335.231 41.0525C336.302 37.8254 336.32 34.3416 335.282 31.1036C334.245 27.8657 332.206 25.0409 329.459 23.0368C326.712 21.0326 323.4 19.9527 320 19.9527V16Z" stroke="#D8FD87" stroke-width="8" mask="url(#path-8-inside-1_1_1515)"/>
<path d="M313.558 40.12C313.022 40.12 312.546 40.016 312.13 39.808C311.722 39.6 311.402 39.316 311.17 38.956C310.938 38.588 310.822 38.172 310.822 37.708C310.822 37.34 310.894 37.004 311.038 36.7C311.19 36.388 311.402 36.124 311.674 35.908C311.946 35.684 312.262 35.532 312.622 35.452L312.718 35.704C312.398 35.616 312.126 35.476 311.902 35.284C311.678 35.092 311.506 34.864 311.386 34.6C311.266 34.328 311.206 34.044 311.206 33.748C311.206 33.324 311.306 32.956 311.506 32.644C311.714 32.324 311.994 32.072 312.346 31.888C312.706 31.704 313.11 31.612 313.558 31.612C314.014 31.612 314.418 31.704 314.77 31.888C315.13 32.072 315.41 32.324 315.61 32.644C315.81 32.956 315.91 33.324 315.91 33.748C315.91 34.044 315.85 34.328 315.73 34.6C315.618 34.864 315.45 35.092 315.226 35.284C315.002 35.476 314.726 35.616 314.398 35.704L314.494 35.452C314.862 35.532 315.178 35.684 315.442 35.908C315.714 36.124 315.922 36.388 316.066 36.7C316.218 37.004 316.294 37.34 316.294 37.708C316.294 38.172 316.178 38.588 315.946 38.956C315.722 39.316 315.402 39.6 314.986 39.808C314.578 40.016 314.102 40.12 313.558 40.12ZM313.558 39.328C313.926 39.328 314.25 39.256 314.53 39.112C314.818 38.968 315.042 38.768 315.202 38.512C315.362 38.248 315.442 37.952 315.442 37.624C315.442 37.288 315.362 36.996 315.202 36.748C315.042 36.492 314.818 36.292 314.53 36.148C314.25 35.996 313.926 35.92 313.558 35.92C313.198 35.92 312.874 35.996 312.586 36.148C312.306 36.292 312.082 36.492 311.914 36.748C311.754 36.996 311.674 37.288 311.674 37.624C311.674 37.952 311.754 38.248 311.914 38.512C312.082 38.768 312.306 38.968 312.586 39.112C312.866 39.256 313.19 39.328 313.558 39.328ZM313.558 35.236C314.006 35.236 314.37 35.104 314.65 34.84C314.938 34.568 315.082 34.22 315.082 33.796C315.082 33.372 314.938 33.028 314.65 32.764C314.37 32.5 314.006 32.368 313.558 32.368C313.118 32.368 312.754 32.5 312.466 32.764C312.178 33.028 312.034 33.372 312.034 33.796C312.034 34.22 312.178 34.568 312.466 34.84C312.754 35.104 313.118 35.236 313.558 35.236ZM318.329 40L321.497 32.236L322.349 32.296L319.241 40H318.329ZM316.901 32.524V31.744H322.349V32.296L321.965 32.524H316.901ZM323.697 40L329.001 31.744H329.865L324.573 40H323.697ZM328.365 40.12C328.061 40.12 327.781 40.048 327.525 39.904C327.269 39.752 327.065 39.548 326.913 39.292C326.761 39.036 326.685 38.752 326.685 38.44C326.685 38.128 326.761 37.848 326.913 37.6C327.065 37.352 327.265 37.156 327.513 37.012C327.769 36.86 328.053 36.784 328.365 36.784C328.677 36.784 328.957 36.86 329.205 37.012C329.461 37.156 329.665 37.352 329.817 37.6C329.969 37.848 330.045 38.128 330.045 38.44C330.045 38.752 329.969 39.036 329.817 39.292C329.673 39.548 329.473 39.752 329.217 39.904C328.961 40.048 328.677 40.12 328.365 40.12ZM328.353 39.436C328.641 39.436 328.877 39.344 329.061 39.16C329.245 38.976 329.337 38.736 329.337 38.44C329.337 38.152 329.241 37.92 329.049 37.744C328.857 37.56 328.625 37.468 328.353 37.468C328.089 37.468 327.865 37.56 327.681 37.744C327.497 37.92 327.405 38.152 327.405 38.44C327.405 38.736 327.497 38.976 327.681 39.16C327.865 39.344 328.089 39.436 328.353 39.436ZM325.197 34.96C324.893 34.96 324.613 34.888 324.357 34.744C324.101 34.592 323.897 34.392 323.745 34.144C323.593 33.888 323.517 33.604 323.517 33.292C323.517 32.98 323.593 32.7 323.745 32.452C323.897 32.196 324.097 31.996 324.345 31.852C324.601 31.7 324.885 31.624 325.197 31.624C325.509 31.624 325.789 31.7 326.037 31.852C326.293 31.996 326.497 32.196 326.649 32.452C326.801 32.7 326.877 32.98 326.877 33.292C326.877 33.604 326.801 33.888 326.649 34.144C326.505 34.392 326.305 34.592 326.049 34.744C325.793 34.888 325.509 34.96 325.197 34.96ZM325.185 34.276C325.473 34.276 325.705 34.184 325.881 34C326.065 33.816 326.157 33.576 326.157 33.28C326.157 32.992 326.061 32.76 325.869 32.584C325.685 32.4 325.457 32.308 325.185 32.308C324.921 32.308 324.697 32.4 324.513 32.584C324.329 32.76 324.237 32.992 324.237 33.28C324.237 33.576 324.329 33.816 324.513 34C324.697 34.184 324.921 34.276 325.185 34.276Z" fill="white"/>
</svg>
